<svg xmlns="http://www.w3.org/2000/svg" viewBox="0 0 1112 130.85"><defs><style>.cls-1{fill:#9c9c9c;}</style></defs><title>アセット 3</title><g id="レイヤー_2" data-name="レイヤー 2"><g id="IMAX"><path class="cls-1" d="M502,22.87A19,19,0,0,1,494.2,21V17.7h.19A11.47,11.47,0,0,0,502,20.57a7,7,0,0,0,4.14-1.08,3.36,3.36,0,0,0,1.5-2.86,3.33,3.33,0,0,0-.64-2.16,4.26,4.26,0,0,0-2.22-1.22l-4.92-1a7.68,7.68,0,0,1-4.15-2.07,5.46,5.46,0,0,1-1.41-3.9,5.54,5.54,0,0,1,2.2-4.5A8.85,8.85,0,0,1,502.25,0a18.18,18.18,0,0,1,7.38,1.63V4.83h-.2a10.88,10.88,0,0,0-7.18-2.53,6.15,6.15,0,0,0-3.68,1A3.12,3.12,0,0,0,497.17,6q0,2.74,3.19,3.53,1.85.34,4.11.84a12.76,12.76,0,0,1,3.24,1.05,5.87,5.87,0,0,1,1.58,1.25,4.71,4.71,0,0,1,.91,1.6,6.19,6.19,0,0,1,.3,2A5.88,5.88,0,0,1,508.17,21,9.49,9.49,0,0,1,502,22.87"/><path class="cls-1" d="M525.29,22.87a10.12,10.12,0,0,1-7.76-3q-2.8-3-2.8-8.42t2.85-8.39A10,10,0,0,1,525.31,0a15.78,15.78,0,0,1,7.3,2V5.19h-.21a11.16,11.16,0,0,0-7.27-2.89,6.83,6.83,0,0,0-5.52,2.42,10.16,10.16,0,0,0-2,6.73,9.93,9.93,0,0,0,2.07,6.69,6.91,6.91,0,0,0,5.51,2.41,10.59,10.59,0,0,0,3.55-.59,12,12,0,0,0,3.69-2.32h.21v3.22a22.1,22.1,0,0,1-4.37,1.67,14,14,0,0,1-2.94.34"/><path class="cls-1" d="M556.1,22.47h-3.56l-7.27-8.88h-4.5v8.88H538V.4h6.25q4.41,0,6.31,1.66a5.5,5.5,0,0,1,1.9,4.35A6.52,6.52,0,0,1,548,12.82ZM540.77,2.71v8.64H544q3,0,4.35-1.23a4.67,4.67,0,0,0,1.32-3.59q0-3.82-5.17-3.82Z"/><polygon class="cls-1" points="574.7 22.47 560.33 22.47 560.33 0.4 574.7 0.4 574.7 2.77 563.05 2.77 563.05 9.2 574.4 9.2 574.4 11.57 563.05 11.57 563.05 20.1 574.7 20.1 574.7 22.47"/><polygon class="cls-1" points="595.03 22.47 580.66 22.47 580.66 0.4 595.03 0.4 595.03 2.77 583.38 2.77 583.38 9.2 594.74 9.2 594.74 11.57 583.38 11.57 583.38 20.1 595.03 20.1 595.03 22.47"/><polygon class="cls-1" points="617.8 22.47 614.64 22.47 603.52 3.31 603.52 22.47 600.99 22.47 600.99 0.4 604.77 0.4 615.27 18.5 615.27 0.4 617.8 0.4 617.8 22.47"/><path class="cls-1" d="M520,39.65s-9.24,18.26-10.77,21.27c-1.51-3-10.8-21.27-10.8-21.27h-18V75.17h10.06V49.44h2.05l12.55,25.72h8.32s12-24.64,12.56-25.72H528V75.17h10.06V39.65Z"/><rect class="cls-1" x="461.25" y="39.65" width="11.31" height="35.51"/><path class="cls-1" d="M540.09,75.17H552s2.62-5.12,3.1-6h22.55c.47.91,3.07,6,3.07,6h11.93l-18-35.51H558.12ZM567,47.69c.46.92,5.67,11.18,6.83,13.48H559l6.83-13.48Z"/><path class="cls-1" d="M640.48,39.61H629l-9.7,11.57-9.52-11.57H595.92l14,16.67L593.25,75.17H608l11.36-13c1.32,1.54,11.19,13,11.19,13h14.76L628.61,56.28l14-16.67Z"/><path class="cls-1" d="M644,43.34a4,4,0,1,1,4,4v-.65a3.37,3.37,0,1,0-3.37-3.38A3.38,3.38,0,0,0,648,46.71v.65a4,4,0,0,1-4-4"/><path class="cls-1" d="M647.14,44v1.44h-.85V41.11h2.23c1,0,1.33.32,1.33,1.31,0,.65,0,1.12-.78,1.23v0c.61,0,.75.38.75,1v.82H649v-.82c0-.37-.15-.62-.55-.62Zm1.1-.73c.61,0,.77-.11.77-.75s-.11-.73-.71-.73h-1.16v1.48Z"/><path class="cls-1" d="M556,88.59A4177,4177,0,0,0,0,125.8v5a4167.59,4167.59,0,0,1,1112,0v-5A4177,4177,0,0,0,556,88.59Z"/></g></g></svg>