<svg xmlns="http://www.w3.org/2000/svg" viewBox="0 0 830 166.17"><defs><style>.cls-1{fill:#9c9c9c;}</style></defs><title>アセット 60</title><g id="レイヤー_2" data-name="レイヤー 2"><g id="_4DXのコピー" data-name="4DXのコピー"><path class="cls-1" d="M361.5,22.85A18.49,18.49,0,0,1,353.7,21V17.65h.2a11.54,11.54,0,0,0,7.65,2.85,6.82,6.82,0,0,0,4.15-1.1,3.36,3.36,0,0,0,1.5-2.85,3.16,3.16,0,0,0-.65-2.15,4,4,0,0,0-2.2-1.2l-4.9-1a7.75,7.75,0,0,1-4.15-2.05,5.41,5.41,0,0,1-1.4-3.9,5.63,5.63,0,0,1,2.2-4.5A8.68,8.68,0,0,1,361.85,0a18.21,18.21,0,0,1,7.4,1.65v3.2h-.2a10.84,10.84,0,0,0-7.2-2.55,6.47,6.47,0,0,0-3.7,1A3,3,0,0,0,356.75,6c0,1.85,1,3,3.2,3.55,1.25.2,2.6.5,4.1.85a14.46,14.46,0,0,1,3.25,1.05,5.93,5.93,0,0,1,1.6,1.25,4.58,4.58,0,0,1,.9,1.6,6.22,6.22,0,0,1,.3,2A5.89,5.89,0,0,1,367.75,21,9.79,9.79,0,0,1,361.5,22.85Z"/><path class="cls-1" d="M384.8,22.85a10.06,10.06,0,0,1-7.75-3c-1.85-2-2.8-4.8-2.8-8.4s1-6.35,2.85-8.4a10.06,10.06,0,0,1,7.75-3,15.48,15.48,0,0,1,7.3,2V5.2H392a11.27,11.27,0,0,0-7.25-2.9,6.84,6.84,0,0,0-5.5,2.4,10.17,10.17,0,0,0-2,6.75,10.12,10.12,0,0,0,2,6.7,6.91,6.91,0,0,0,5.5,2.4,10.59,10.59,0,0,0,3.55-.6,11.89,11.89,0,0,0,3.7-2.3h.2v3.2a20.92,20.92,0,0,1-4.35,1.65A16.28,16.28,0,0,1,384.8,22.85Z"/><path class="cls-1" d="M415.6,22.45h-3.55l-7.25-8.9h-4.5v8.9h-2.7V.35h6.25q4.43,0,6.3,1.65a5.53,5.53,0,0,1,1.9,4.35,6.47,6.47,0,0,1-4.45,6.4ZM400.3,2.7v8.65h3.2c2,0,3.45-.4,4.35-1.25a4.62,4.62,0,0,0,1.3-3.6c0-2.55-1.7-3.8-5.15-3.8Z"/><path class="cls-1" d="M434.2,22.45H419.85V.35H434.2V2.7H422.55V9.15H433.9V11.5H422.55v8.55H434.2Z"/><path class="cls-1" d="M454.55,22.45H440.2V.35h14.35V2.7H442.9V9.15h11.35V11.5H442.9v8.55h11.65Z"/><path class="cls-1" d="M477.3,22.45h-3.15L463.05,3.3V22.45H460.5V.35h3.8l10.5,18.1V.35h2.55v22.1Z"/><path class="cls-1" d="M358.5,82.15V55.5H343.1L320.2,82.15h5.85l-2.75,3.2v9.6h29.3v8.5h11V82.15Zm-5.9,3.2H335.25l2.8-3.2H333l14.5-16.65V82.15h5.15v3.2Z"/><path class="cls-1" d="M414.35,74.9h-6c-.2-10.75-9.2-19.4-20.35-19.4H369.5V74.9h6V95H394c11.25,0,20.35-8.8,20.35-19.7A1,1,0,0,0,414.35,74.9ZM394.9,85.4h-7.85V74.9h-6V65h7.85c4.35,0,7.9,4.4,8,9.95h6v.25C402.9,80.8,399.3,85.4,394.9,85.4Z"/><polygon class="cls-1" points="421.85 83.7 419.3 86.35 464.95 86.35 462.35 83.7 421.85 83.7"/><polygon class="cls-1" points="434.25 74.9 427.3 82.15 466.25 82.15 459.3 74.9 434.25 74.9"/><polygon class="cls-1" points="433.05 68.6 437.55 73.3 466 73.3 470.5 68.6 433.05 68.6"/><polygon class="cls-1" points="421 67 441.1 67 430.05 55.55 409.95 55.55 421 67"/><polygon class="cls-1" points="441.65 67 460 67 471.05 55.55 452.65 55.55 441.65 67"/><polygon class="cls-1" points="417.5 53.95 437.65 53.95 430.15 46.2 410 46.2 417.5 53.95"/><polygon class="cls-1" points="473.7 38.35 458.8 53.95 478.95 53.95 493.85 38.35 473.7 38.35"/><polygon class="cls-1" points="472.65 87.95 452.55 87.95 459.2 94.95 479.35 94.95 472.65 87.95"/><polygon class="cls-1" points="401.2 112.4 422.25 112.4 437.75 96.2 416.7 96.2 401.2 112.4"/><polygon class="cls-1" points="450.75 87.95 429.55 87.95 422.8 94.95 444 94.95 450.75 87.95"/><polygon class="cls-1" points="461.9 103.45 482 103.45 475.1 96.2 454.95 96.2 461.9 103.45"/><path class="cls-1" d="M497.05,42.65a7.85,7.85,0,0,1,1.55-2.25,6.55,6.55,0,0,1,2.3-1.5,7.29,7.29,0,0,1,2.75-.55,7.55,7.55,0,0,1,2.8.55,6.83,6.83,0,0,1,2.25,1.5,7.85,7.85,0,0,1,1.55,2.25,6.52,6.52,0,0,1,.55,2.8,7.42,7.42,0,0,1-.55,2.85,7.22,7.22,0,0,1-1.55,2.25,6.83,6.83,0,0,1-2.25,1.5,7.36,7.36,0,0,1-2.8.55,7.34,7.34,0,0,1-5-2,7,7,0,0,1-1.55-2.25,7.61,7.61,0,0,1-.55-2.85A7.36,7.36,0,0,1,497.05,42.65Zm1.2,5.25a5.68,5.68,0,0,0,1.25,2,6.87,6.87,0,0,0,1.85,1.3,5.9,5.9,0,0,0,2.3.45,5.72,5.72,0,0,0,2.3-.45,5.39,5.39,0,0,0,1.85-1.3,5.68,5.68,0,0,0,1.25-2,6.48,6.48,0,0,0,.45-2.45A6.4,6.4,0,0,0,509,43a5,5,0,0,0-1.25-1.9,6.17,6.17,0,0,0-1.85-1.3,5.9,5.9,0,0,0-2.3-.45,5.72,5.72,0,0,0-2.3.45,5.39,5.39,0,0,0-1.85,1.3,6,6,0,0,0-1.25,1.9,6.4,6.4,0,0,0-.45,2.4A6.66,6.66,0,0,0,498.25,47.9Zm5.85-6.6a3.4,3.4,0,0,1,2.2.6,2.14,2.14,0,0,1,.7,1.8,2,2,0,0,1-.65,1.65,2.68,2.68,0,0,1-1.55.6l2.4,3.7h-1.4l-2.25-3.6h-1.4v3.6h-1.3V41.3Zm-.55,3.7a4.85,4.85,0,0,0,.85,0,1.6,1.6,0,0,0,.7-.15,2,2,0,0,0,.5-.4,1.75,1.75,0,0,0,.15-.8,1.13,1.13,0,0,0-.15-.65,1.18,1.18,0,0,0-.45-.4,1.69,1.69,0,0,0-.6-.2,2.85,2.85,0,0,0-.65,0h-1.7v2.65h1.35Z"/><path class="cls-1" d="M415,129.8A2766.36,2766.36,0,0,0,0,161.1v5.06a2761.38,2761.38,0,0,1,830,0v-5.06A2766.34,2766.34,0,0,0,415,129.8Z"/></g></g></svg>