<svg xmlns="http://www.w3.org/2000/svg" viewBox="0 0 830 242.24"><defs><style>.cls-1{fill:#9c9c9c;}</style></defs><title>アセット 57</title><g id="レイヤー_2" data-name="レイヤー 2"><g id="_4DX" data-name="4DX"><path class="cls-1" d="M361.5,22.85A18.49,18.49,0,0,1,353.7,21V17.65h.2a11.54,11.54,0,0,0,7.65,2.85,6.82,6.82,0,0,0,4.15-1.1,3.36,3.36,0,0,0,1.5-2.85,3.16,3.16,0,0,0-.65-2.15,4,4,0,0,0-2.2-1.2l-4.9-1a7.75,7.75,0,0,1-4.15-2.05,5.41,5.41,0,0,1-1.4-3.9,5.63,5.63,0,0,1,2.2-4.5A8.68,8.68,0,0,1,361.85,0a18.21,18.21,0,0,1,7.4,1.65v3.2h-.2a10.84,10.84,0,0,0-7.2-2.55,6.47,6.47,0,0,0-3.7,1A3,3,0,0,0,356.75,6c0,1.85,1,3,3.2,3.55,1.25.2,2.6.5,4.1.85a14.46,14.46,0,0,1,3.25,1.05,5.93,5.93,0,0,1,1.6,1.25,4.58,4.58,0,0,1,.9,1.6,6.22,6.22,0,0,1,.3,2A5.89,5.89,0,0,1,367.75,21,9.79,9.79,0,0,1,361.5,22.85Z"/><path class="cls-1" d="M384.8,22.85a10.06,10.06,0,0,1-7.75-3c-1.85-2-2.8-4.8-2.8-8.4s1-6.35,2.85-8.4a10.06,10.06,0,0,1,7.75-3,15.48,15.48,0,0,1,7.3,2V5.2H392a11.27,11.27,0,0,0-7.25-2.9,6.84,6.84,0,0,0-5.5,2.4,10.17,10.17,0,0,0-2,6.75,10.12,10.12,0,0,0,2,6.7,6.91,6.91,0,0,0,5.5,2.4,10.59,10.59,0,0,0,3.55-.6,11.89,11.89,0,0,0,3.7-2.3h.2v3.2a20.92,20.92,0,0,1-4.35,1.65A16.28,16.28,0,0,1,384.8,22.85Z"/><path class="cls-1" d="M415.6,22.45h-3.55l-7.25-8.9h-4.5v8.9h-2.7V.35h6.25q4.43,0,6.3,1.65A5.53,5.53,0,0,1,412,6.35a6.47,6.47,0,0,1-4.45,6.4ZM400.3,2.7v8.65h3.2c2,0,3.45-.4,4.35-1.25a4.62,4.62,0,0,0,1.3-3.6c0-2.55-1.7-3.8-5.15-3.8Z"/><path class="cls-1" d="M434.2,22.45H419.85V.35H434.2V2.7H422.55V9.15H433.9V11.5H422.55v8.55H434.2Z"/><path class="cls-1" d="M454.55,22.45H440.2V.35h14.35V2.7H442.9V9.15h11.35V11.5H442.9v8.55h11.65Z"/><path class="cls-1" d="M477.3,22.45h-3.15L463.05,3.3V22.45H460.5V.35h3.8l10.5,18.1V.35h2.55v22.1Z"/><path class="cls-1" d="M415,205.87A2766.36,2766.36,0,0,0,0,237.17v5.06a2761.38,2761.38,0,0,1,830,0v-5.06A2766.34,2766.34,0,0,0,415,205.87Z"/><path class="cls-1" d="M479.14,136.9l-.26.08-35.72,11.49V176.8l36,11.43,14.72-9.38v-32Zm-.64,12.2L454.87,153l-9.59-4.1,33.23-10.69Zm1.1-10.56,12.26,8.34-12.26,2Zm-24.22,15.53,23.13-3.85v25.16l-23.13-4.26Zm-1.07-.07v17.18l-10.05,4.29V149.7Zm.56,18.14,23.64,4.36v10.4l-33.36-10.6Zm24.73,4.56,12.11,2.23-12.11,7.71Zm0-1.12V150l13.15-2.19V178Z"/><path class="cls-1" d="M341.46,156.39V153H326.4a3,3,0,0,0-3,3v5.61a3,3,0,0,0,3,3h9.84v4.89H323.39v3.37h15.25a2.87,2.87,0,0,0,2.82-3V164.3a3.12,3.12,0,0,0-3-3h-9.84v-4.89Z"/><path class="cls-1" d="M360.27,156.39V153H346.5a3.06,3.06,0,0,0-3.06,3V169.9a3.12,3.12,0,0,0,3.06,3h13.77v-3.37H348.66V156.39Z"/><path class="cls-1" d="M375.69,166.14h1.17A3.51,3.51,0,0,0,380.1,163v-6.72a3.47,3.47,0,0,0-3.24-3.23H362.22v19.9h5.22V156.39h7.44v6.41h-6.16v.69l6.37,9.42h5.22Z"/><path class="cls-1" d="M399,156.39V153H385.13a3,3,0,0,0-3,3V169.9a3,3,0,0,0,3,3H399v-3.37H387.34v-4.89h8.78v-3.38h-8.78v-4.89Z"/><path class="cls-1" d="M417.76,156.39V153H403.87a3,3,0,0,0-3,3V169.9a3,3,0,0,0,3,3h13.89v-3.37H406.08v-4.89h8.78v-3.38h-8.78v-4.89Z"/><path class="cls-1" d="M439,153h-5.22v15.13l-7.11-13.48A3.09,3.09,0,0,0,424.1,153h-4.33v19.9H425V157.79L432,171.15a3.26,3.26,0,0,0,2.79,1.76H439Z"/><polygon class="cls-1" points="477.18 141.24 465.63 144.65 457.88 157.08 451.9 148.7 446.52 150.28 454.34 162.77 446.56 175.27 451.94 176.84 457.9 168.44 465.68 180.85 477.24 184.23 461.93 162.76 477.18 141.24"/><path class="cls-1" d="M358.57,82V55.36H343.2L320.28,82h5.87l-2.76,3.17v9.6h29.27v8.51h11V82Zm-5.92,3.21H335.32L338.14,82H333l14.5-16.65V82h5.13Z"/><path class="cls-1" d="M414.41,74.75h-6c-.18-10.75-9.22-19.39-20.35-19.39H369.59V74.75h6v20h18.46c11.25,0,20.36-8.79,20.36-19.69,0-.11,0-.22,0-.33M394.93,85.25h-7.84V74.75h-6V64.81h7.85c4.36,0,7.91,4.42,8,9.93h6c0,.09,0,.19,0,.27,0,5.64-3.6,10.24-8,10.24"/><polygon class="cls-1" points="421.92 83.55 419.36 86.19 464.97 86.19 462.4 83.55 421.92 83.55"/><polygon class="cls-1" points="434.28 74.75 427.33 81.98 466.3 81.98 459.36 74.75 434.28 74.75"/><polygon class="cls-1" points="433.11 68.45 437.6 73.13 466.04 73.13 470.54 68.45 433.11 68.45"/><polygon class="cls-1" points="421.03 66.87 441.13 66.87 430.11 55.39 410 55.39 421.03 66.87"/><polygon class="cls-1" points="441.66 66.87 460.05 66.87 471.07 55.39 452.69 55.39 441.66 66.87"/><polygon class="cls-1" points="417.57 53.81 437.68 53.81 430.19 46.05 410.05 46.05 417.57 53.81"/><polygon class="cls-1" points="473.75 38.21 458.86 53.81 478.96 53.81 493.85 38.21 473.75 38.21"/><polygon class="cls-1" points="472.68 87.79 452.57 87.79 459.25 94.77 479.37 94.77 472.68 87.79"/><polygon class="cls-1" points="401.26 112.24 422.28 112.24 437.81 96.05 416.73 96.05 401.26 112.24"/><polygon class="cls-1" points="450.8 87.79 429.58 87.79 422.84 94.77 444.06 94.77 450.8 87.79"/><polygon class="cls-1" points="461.92 103.28 482.01 103.28 475.1 96.05 455 96.05 461.92 103.28"/><polygon class="cls-1" points="402.64 130.73 401.3 130.73 400.26 126.54 400.24 126.54 399.22 130.73 397.85 130.73 396.22 124.58 397.57 124.58 398.54 128.77 398.56 128.77 399.63 124.58 400.89 124.58 401.94 128.82 401.96 128.82 402.97 124.58 404.29 124.58 402.64 130.73"/><rect class="cls-1" x="404.92" y="124.58" width="1.35" height="6.15"/><polygon class="cls-1" points="408.82 125.72 406.98 125.72 406.98 124.58 412.01 124.58 412.01 125.72 410.17 125.72 410.17 130.73 408.82 130.73 408.82 125.72"/><polygon class="cls-1" points="412.72 124.58 414.08 124.58 414.08 126.94 416.56 126.94 416.56 124.58 417.92 124.58 417.92 130.73 416.56 130.73 416.56 128.08 414.08 128.08 414.08 130.73 412.72 130.73 412.72 124.58"/><rect class="cls-1" x="320.28" y="127.2" width="67.8" height="0.91"/><rect class="cls-1" x="426.05" y="127.2" width="67.8" height="0.91"/></g></g></svg>