<svg xmlns="http://www.w3.org/2000/svg" viewBox="0 0 1012 168"><defs><style>.cls-1{fill:#9d9c9c;}.cls-2{isolation:isolate;}</style></defs><title>アセット 11</title><g id="レイヤー_2" data-name="レイヤー 2"><g id="_6" data-name="6"><path class="cls-1" d="M506,130.55A3969.93,3969.93,0,0,0,0,163v5a3961.48,3961.48,0,0,1,1012,0v-5A3969.89,3969.89,0,0,0,506,130.55Z"/><g class="cls-2"><path class="cls-1" d="M453.71,22.85a18.49,18.49,0,0,1-7.8-1.85V17.65h.2a11.54,11.54,0,0,0,7.65,2.85,6.82,6.82,0,0,0,4.15-1.1,3.3,3.3,0,0,0,1.5-2.85,3.16,3.16,0,0,0-.65-2.15,4.17,4.17,0,0,0-2.2-1.2l-4.9-1a7.75,7.75,0,0,1-4.15-2.05,5.41,5.41,0,0,1-1.4-3.9,5.63,5.63,0,0,1,2.2-4.5A8.68,8.68,0,0,1,454.06,0a18.21,18.21,0,0,1,7.4,1.65V4.8h-.2a10.84,10.84,0,0,0-7.2-2.55,6.47,6.47,0,0,0-3.7,1A3,3,0,0,0,449,5.9c0,1.85,1,3,3.2,3.55,1.25.2,2.6.5,4.1.85a14.46,14.46,0,0,1,3.25,1.05,5.93,5.93,0,0,1,1.6,1.25,4.58,4.58,0,0,1,.9,1.6,6.22,6.22,0,0,1,.3,2A5.89,5.89,0,0,1,460,21,9.8,9.8,0,0,1,453.71,22.85Z"/><path class="cls-1" d="M476.71,22.85a10.06,10.06,0,0,1-7.75-3c-1.85-2-2.8-4.8-2.8-8.4s1-6.35,2.85-8.4a10.06,10.06,0,0,1,7.75-3,15.48,15.48,0,0,1,7.3,2V5.2h-.2a11.27,11.27,0,0,0-7.25-2.9,6.84,6.84,0,0,0-5.5,2.4,10.17,10.17,0,0,0-2,6.75,10.12,10.12,0,0,0,2,6.7,6.91,6.91,0,0,0,5.5,2.4,10.59,10.59,0,0,0,3.55-.6,12.49,12.49,0,0,0,3.7-2.3h.2v3.2a20.92,20.92,0,0,1-4.35,1.65A16.28,16.28,0,0,1,476.71,22.85Z"/><path class="cls-1" d="M507.21,22.45h-3.55l-7.25-8.9h-4.5v8.9h-2.7V.35h6.25q4.43,0,6.3,1.65a5.53,5.53,0,0,1,1.9,4.35,6.47,6.47,0,0,1-4.45,6.4ZM491.86,2.7v8.65h3.2c2,0,3.45-.4,4.35-1.25a4.62,4.62,0,0,0,1.3-3.6c0-2.55-1.7-3.8-5.15-3.8Z"/><path class="cls-1" d="M525.51,22.45H511.16V.35h14.35V2.7H513.86V9.15h11.35V11.5H513.86v8.55h11.65Z"/><path class="cls-1" d="M545.51,22.45H531.16V.35h14.35V2.7H533.86V9.15h11.35V11.5H533.86v8.55h11.65Z"/><path class="cls-1" d="M568,22.45h-3.15L553.71,3.3V22.45h-2.55V.35H555l10.5,18.1V.35H568Z"/></g><path class="cls-1" d="M391.61,39.4h20.5a16.74,16.74,0,0,1,6.45,1.1A11.07,11.07,0,0,1,423,43.7a11.47,11.47,0,0,1,1.9,3.35,12.8,12.8,0,0,1,.7,4.35v.15a11,11,0,0,1-6.15,10.6,13.16,13.16,0,0,1,5.8,4.1c1.45,1.8,2.15,4.3,2.15,7.5v.15c0,4.15-1.35,7.35-4,9.65S417,87,412.21,87H391.56ZM411,76.45a6.09,6.09,0,0,0,4-1.1,4,4,0,0,0,1.4-3.25V72A4.14,4.14,0,0,0,415,68.8a6.27,6.27,0,0,0-4.1-1.15h-8.45v8.8Zm-1.6-18.05a6.6,6.6,0,0,0,3.9-1,3.68,3.68,0,0,0,1.35-3.15V54.1a3.75,3.75,0,0,0-1.25-3,5.84,5.84,0,0,0-3.8-1h-7.2v8.35h7Z"/><path class="cls-1" d="M450.91,39.4h32.15V50.65h-21.2v7.2h19.2v10.4h-19.2V75.8h21.5V87.05H450.91Z"/><path class="cls-1" d="M523.11,87.85a26,26,0,0,1-10.2-2,24.93,24.93,0,0,1-8.55-5.95l6.2-8.8c4,3.8,8.3,5.7,13,5.7a5.88,5.88,0,0,0,3.4-.85,2.73,2.73,0,0,0,1.2-2.4V73.4a3,3,0,0,0-.3-1.35,3.09,3.09,0,0,0-1-1.1,11,11,0,0,0-2-1.05,24.69,24.69,0,0,0-3.35-1.05c-2.15-.6-4.1-1.25-6-1.95a16.82,16.82,0,0,1-4.75-2.7,12,12,0,0,1-3.2-4.15,14.07,14.07,0,0,1-1.15-6.15v-.1a17.17,17.17,0,0,1,1-6.1,13.47,13.47,0,0,1,3.1-4.8,14.25,14.25,0,0,1,4.9-3.15,17.46,17.46,0,0,1,6.45-1.1,25.16,25.16,0,0,1,9.2,1.6,22.15,22.15,0,0,1,7.3,4.75l-5.55,9.35a21.44,21.44,0,0,0-5.65-3.5,14.68,14.68,0,0,0-5.6-1.2,4.3,4.3,0,0,0-3,.9,2.83,2.83,0,0,0-1,2.15v.15a3.42,3.42,0,0,0,.3,1.45,2.58,2.58,0,0,0,1.1,1.1,8.25,8.25,0,0,0,2.1,1,31.55,31.55,0,0,0,3.4,1,50.07,50.07,0,0,1,6.2,2,17.41,17.41,0,0,1,4.7,2.9,10.91,10.91,0,0,1,3,4.1,14.26,14.26,0,0,1,1,5.75v.15a16.56,16.56,0,0,1-1.2,6.5,14.39,14.39,0,0,1-3.3,4.85,13.75,13.75,0,0,1-5.1,3.05A19.15,19.15,0,0,1,523.11,87.85Z"/><path class="cls-1" d="M572.91,51h-12V39.45H596V51H584l0,36h-11.1Z"/><path class="cls-1" d="M619.51,39.4h11.15l-.1,47.65H619.41Z"/><polygon class="cls-1" points="680.91 39.05 670.21 39.05 653.06 87.05 689.26 62.7 680.91 39.05"/><polygon class="cls-1" points="653.06 87.05 697.86 87.05 693.01 73.35 653.06 87.05"/><rect class="cls-1" x="315.01" y="78.75" width="48.95" height="8.3"/><rect class="cls-1" x="315.01" y="58.95" width="48.95" height="8.3"/><rect class="cls-1" x="315.01" y="39.1" width="48.95" height="8.3"/><path class="cls-1" d="M315.11,99.9h5.5a4.22,4.22,0,0,1,3.2,1.1,2.79,2.79,0,0,1,.8,2.05v.05a3,3,0,0,1-.15,1,2.65,2.65,0,0,1-.4.75,2.87,2.87,0,0,1-.55.55,4.57,4.57,0,0,1-.65.4c.35.15.7.3,1,.45a2.21,2.21,0,0,1,.75.6,2.39,2.39,0,0,1,.5.85,3.66,3.66,0,0,1,.15,1.1v.05a3.26,3.26,0,0,1-.3,1.45,2.6,2.6,0,0,1-.9,1.05,4.28,4.28,0,0,1-1.45.65,7.24,7.24,0,0,1-1.85.2h-5.7V99.9Zm5.05,5.2a3.42,3.42,0,0,0,1.7-.4,1.49,1.49,0,0,0,.65-1.25v-.05a1.36,1.36,0,0,0-.55-1.15,2.79,2.79,0,0,0-1.6-.4h-3.1v3.3h2.9Zm.65,5.2a3.48,3.48,0,0,0,1.75-.4,1.49,1.49,0,0,0,.65-1.25v-.05a1.31,1.31,0,0,0-.6-1.2,3.22,3.22,0,0,0-1.9-.45h-3.4v3.4h3.5Z"/><path class="cls-1" d="M332.86,101.6h7.8v1.7h-6v2.75H340v1.7h-5.3v2.85h6v1.7h-7.9V101.6Z"/><path class="cls-1" d="M351.26,112.35a7.48,7.48,0,0,1-2.35-.4,6,6,0,0,1-2-1.3l1.1-1.35a5.42,5.42,0,0,0,1.55,1,4,4,0,0,0,1.8.35,2.17,2.17,0,0,0,1.35-.35,1.08,1.08,0,0,0,.5-.95v-.05a1.48,1.48,0,0,0-.1-.5.89.89,0,0,0-.35-.4,2.1,2.1,0,0,0-.75-.35c-.3-.1-.7-.2-1.2-.35s-1-.3-1.5-.45a3.3,3.3,0,0,1-1.1-.6,3.73,3.73,0,0,1-.7-.85,3.09,3.09,0,0,1-.25-1.25v-.05a3.48,3.48,0,0,1,.25-1.25,2.88,2.88,0,0,1,.75-.95,3.64,3.64,0,0,1,1.15-.65,4.4,4.4,0,0,1,1.45-.25,5.61,5.61,0,0,1,2.1.35,6.86,6.86,0,0,1,1.75,1l-1,1.4a7,7,0,0,0-1.45-.8,3.59,3.59,0,0,0-1.45-.3,1.86,1.86,0,0,0-1.25.35,1.14,1.14,0,0,0-.45.9v.05a1.8,1.8,0,0,0,.1.55.77.77,0,0,0,.4.4,2.61,2.61,0,0,0,.75.35c.35.1.75.25,1.25.35s1,.3,1.5.45a2.69,2.69,0,0,1,1,.65,2.58,2.58,0,0,1,.65.85,2.78,2.78,0,0,1,.2,1.15v.05a3,3,0,0,1-.3,1.35,3.09,3.09,0,0,1-.75,1,3,3,0,0,1-1.2.6A3.14,3.14,0,0,1,351.26,112.35Z"/><path class="cls-1" d="M364.41,103.35h-3.35V101.6h8.55v1.75h-3.35v8.85h-1.85v-8.85Z"/><path class="cls-1" d="M392.41,99.9h2.15v12.35h-2.15Z"/><path class="cls-1" d="M403,101.6h2l3.2,5,3.2-5h2v10.6h-1.85v-7.6l-3.35,5h0l-3.3-4.95v7.55H403Z"/><path class="cls-1" d="M420.61,101.6h2l3.2,5,3.2-5h2v10.6h-1.85v-7.6l-3.35,5h0l-3.3-4.95v7.55h-1.85V101.6Z"/><path class="cls-1" d="M438.31,101.6h7.8v1.7h-6v2.75h5.3v1.7h-5.3v2.85h6v1.7h-7.9V101.6Z"/><path class="cls-1" d="M453,101.6h4.7a4.75,4.75,0,0,1,1.75.3,3.8,3.8,0,0,1,1.3.8,3.13,3.13,0,0,1,.65,1,3.48,3.48,0,0,1,.25,1.25V105a2.63,2.63,0,0,1-.2,1.15,5.7,5.7,0,0,1-.5.95,3.66,3.66,0,0,1-.8.7,3.61,3.61,0,0,1-1,.45l2.85,4h-2.2l-2.6-3.7h-2.35v3.7H453V101.6Zm4.55,5.25a2.36,2.36,0,0,0,1.6-.5,1.55,1.55,0,0,0,.6-1.3V105a1.49,1.49,0,0,0-.6-1.3,2.54,2.54,0,0,0-1.6-.45h-2.7v3.55h2.7Z"/><path class="cls-1" d="M472.21,112.35a7.48,7.48,0,0,1-2.35-.4,6,6,0,0,1-2-1.3l1.1-1.35a5.42,5.42,0,0,0,1.55,1,4,4,0,0,0,1.8.35,2.17,2.17,0,0,0,1.35-.35,1.08,1.08,0,0,0,.5-.95v-.05a1.48,1.48,0,0,0-.1-.5.89.89,0,0,0-.35-.4,2.1,2.1,0,0,0-.75-.35c-.3-.1-.7-.2-1.2-.35s-1-.3-1.5-.45a3.3,3.3,0,0,1-1.1-.6,3.73,3.73,0,0,1-.7-.85,3.09,3.09,0,0,1-.25-1.25v-.05a3.48,3.48,0,0,1,.25-1.25,2.88,2.88,0,0,1,.75-.95,3.64,3.64,0,0,1,1.15-.65,4.4,4.4,0,0,1,1.45-.25,5.61,5.61,0,0,1,2.1.35,6.86,6.86,0,0,1,1.75,1l-1,1.4a7,7,0,0,0-1.45-.8,3.59,3.59,0,0,0-1.45-.3,1.86,1.86,0,0,0-1.25.35,1.14,1.14,0,0,0-.45.9v.05a1.8,1.8,0,0,0,.1.55.77.77,0,0,0,.4.4,2.61,2.61,0,0,0,.75.35c.35.1.75.25,1.25.35s1,.3,1.5.45a2.69,2.69,0,0,1,1,.65,2.58,2.58,0,0,1,.65.85,2.78,2.78,0,0,1,.2,1.15v.05a3,3,0,0,1-.3,1.35,3.09,3.09,0,0,1-.75,1,3,3,0,0,1-1.2.6A3.27,3.27,0,0,1,472.21,112.35Z"/><path class="cls-1" d="M482.81,101.6h1.85v10.6h-1.85Z"/><path class="cls-1" d="M491.16,101.6h2l3.2,8.15,3.15-8.15h2l-4.4,10.65h-1.65Z"/><path class="cls-1" d="M508,101.6h7.8v1.7h-6v2.75h5.3v1.7h-5.3v2.85h6v1.7H508Z"/><path class="cls-1" d="M543.16,99.8h2l5.4,12.4h-2.3l-1.25-3h-5.8l-1.25,3h-2.2Zm3.1,7.5-2.1-4.95-2.1,4.95Z"/><path class="cls-1" d="M562.11,112.4a5.32,5.32,0,0,1-1.85-.3,3.39,3.39,0,0,1-1.4-.9,3.94,3.94,0,0,1-.9-1.45,6.22,6.22,0,0,1-.3-2v-6.1h1.85v6.05a3.27,3.27,0,0,0,.7,2.25,2.64,2.64,0,0,0,2,.75,2.49,2.49,0,0,0,2-.75,3,3,0,0,0,.7-2.2v-6.1h1.85v6a5,5,0,0,1-.35,2.05,3.77,3.77,0,0,1-.9,1.5,3.57,3.57,0,0,1-1.45.9A5.32,5.32,0,0,1,562.11,112.4Z"/><path class="cls-1" d="M573.76,101.6h4a6.23,6.23,0,0,1,2.25.4,5.44,5.44,0,0,1,1.8,1.1,5.19,5.19,0,0,1,1.15,1.65,5.81,5.81,0,0,1,.4,2.1v.05a5.81,5.81,0,0,1-.4,2.1,4.88,4.88,0,0,1-1.15,1.7,4.73,4.73,0,0,1-1.8,1.1,6.65,6.65,0,0,1-2.25.4h-4Zm4,8.95a4.71,4.71,0,0,0,1.5-.25,3.33,3.33,0,0,0,1.9-1.9,4.4,4.4,0,0,0,.25-1.45v-.05a4.64,4.64,0,0,0-.25-1.45,3.06,3.06,0,0,0-.75-1.15,3.82,3.82,0,0,0-1.15-.75,3.64,3.64,0,0,0-1.5-.25h-2.1v7.25Z"/><path class="cls-1" d="M590.26,101.6h1.85v10.6h-1.85Z"/><path class="cls-1" d="M604.56,112.4a5.65,5.65,0,0,1-2.25-.45,7.07,7.07,0,0,1-1.75-1.15,5.33,5.33,0,0,1-1.15-1.75,5.81,5.81,0,0,1-.4-2.1v-.05a5.81,5.81,0,0,1,.4-2.1,5.07,5.07,0,0,1,1.15-1.75,6.06,6.06,0,0,1,1.75-1.2,5.32,5.32,0,0,1,2.25-.45,5.65,5.65,0,0,1,2.25.45,7.07,7.07,0,0,1,1.75,1.15,5.33,5.33,0,0,1,1.15,1.75,5.81,5.81,0,0,1,.4,2.1v.05a5.81,5.81,0,0,1-.4,2.1,5.07,5.07,0,0,1-1.15,1.75,6.06,6.06,0,0,1-1.75,1.2A5.65,5.65,0,0,1,604.56,112.4Zm0-1.7a3.59,3.59,0,0,0,1.45-.3,3,3,0,0,0,1.1-.8,4.87,4.87,0,0,0,.75-1.2,4.64,4.64,0,0,0,.25-1.45v-.05a4.64,4.64,0,0,0-.25-1.45,3,3,0,0,0-.75-1.2,3.17,3.17,0,0,0-1.15-.8,3.42,3.42,0,0,0-1.45-.3,3.59,3.59,0,0,0-1.45.3,3,3,0,0,0-1.1.8,4.87,4.87,0,0,0-.75,1.2,4.64,4.64,0,0,0-.25,1.45V107a4.64,4.64,0,0,0,.25,1.45,3.74,3.74,0,0,0,.75,1.2,3.17,3.17,0,0,0,1.15.8A3.59,3.59,0,0,0,604.56,110.7Z"/><path class="cls-1" d="M616.06,99.9h2.4l3.7,9.5,3.7-9.5h2.35l-5.1,12.4h-1.9Z"/><path class="cls-1" d="M635.51,101.6h1.85v10.6h-1.85Z"/><path class="cls-1" d="M648.46,112.35a7.48,7.48,0,0,1-2.35-.4,6,6,0,0,1-2-1.3l1.1-1.35a5.42,5.42,0,0,0,1.55,1,4,4,0,0,0,1.8.35,2.17,2.17,0,0,0,1.35-.35,1.08,1.08,0,0,0,.5-.95v-.05a1.48,1.48,0,0,0-.1-.5.89.89,0,0,0-.35-.4,2.1,2.1,0,0,0-.75-.35c-.3-.1-.7-.2-1.2-.35s-1-.3-1.5-.45a3.3,3.3,0,0,1-1.1-.6,3.73,3.73,0,0,1-.7-.85,3.09,3.09,0,0,1-.25-1.25v-.05a3.48,3.48,0,0,1,.25-1.25,2.88,2.88,0,0,1,.75-.95,3.64,3.64,0,0,1,1.15-.65,4.4,4.4,0,0,1,1.45-.25,5.61,5.61,0,0,1,2.1.35,6.86,6.86,0,0,1,1.75,1l-1,1.4a7,7,0,0,0-1.45-.8,3.59,3.59,0,0,0-1.45-.3,1.86,1.86,0,0,0-1.25.35,1.14,1.14,0,0,0-.45.9v.05a1.8,1.8,0,0,0,.1.55.77.77,0,0,0,.4.4,2.61,2.61,0,0,0,.75.35c.35.1.75.25,1.25.35s1,.3,1.5.45a2.69,2.69,0,0,1,1,.65,2.58,2.58,0,0,1,.65.85,2.78,2.78,0,0,1,.2,1.15v.05a3,3,0,0,1-.3,1.35,3.09,3.09,0,0,1-.75,1,3.39,3.39,0,0,1-1.2.6A3.15,3.15,0,0,1,648.46,112.35Z"/><path class="cls-1" d="M663.36,112.4a5.32,5.32,0,0,1-1.85-.3,3.39,3.39,0,0,1-1.4-.9,3.94,3.94,0,0,1-.9-1.45,6.22,6.22,0,0,1-.3-2v-6.1h1.85v6.05a3.27,3.27,0,0,0,.7,2.25,2.64,2.64,0,0,0,2,.75,2.49,2.49,0,0,0,2-.75,3,3,0,0,0,.7-2.2v-6.1h1.85v6a5,5,0,0,1-.35,2.05,3.77,3.77,0,0,1-.9,1.5,3.57,3.57,0,0,1-1.45.9A5.52,5.52,0,0,1,663.36,112.4Z"/><path class="cls-1" d="M678.76,101.55h1.7l4.65,10.65h-2l-1-2.55h-5L676,112.2h-1.9Zm2.65,6.45-1.85-4.25-1.8,4.25Z"/><path class="cls-1" d="M691.51,101.6h1.85v8.9h5.55v1.7h-7.4V101.6Z"/></g></g></svg>