<svg xmlns="http://www.w3.org/2000/svg" viewBox="0 0 572 53.22"><defs><style>.cls-1{fill:#9c9c9c;}</style></defs><title>アセット 44</title><g id="レイヤー_2" data-name="レイヤー 2"><g id="_7" data-name="7"><path class="cls-1" d="M231.75,22.87A19,19,0,0,1,223.95,21V17.7h.19a11.47,11.47,0,0,0,7.65,2.87,7,7,0,0,0,4.14-1.08,3.36,3.36,0,0,0,1.5-2.86,3.33,3.33,0,0,0-.64-2.16,4.26,4.26,0,0,0-2.22-1.22l-4.92-1a7.68,7.68,0,0,1-4.15-2.07,5.46,5.46,0,0,1-1.41-3.9,5.54,5.54,0,0,1,2.2-4.5A8.85,8.85,0,0,1,232,0a18.18,18.18,0,0,1,7.38,1.63V4.83h-.2A10.88,10.88,0,0,0,232,2.3a6.15,6.15,0,0,0-3.68,1A3.12,3.12,0,0,0,226.92,6q0,2.74,3.19,3.53,1.85.34,4.11.84a12.76,12.76,0,0,1,3.24,1.05A5.87,5.87,0,0,1,239,12.64a4.71,4.71,0,0,1,.91,1.6,6.19,6.19,0,0,1,.3,2A5.88,5.88,0,0,1,237.92,21a9.49,9.49,0,0,1-6.17,1.89"/><path class="cls-1" d="M255,22.87a10.12,10.12,0,0,1-7.76-3q-2.8-3-2.8-8.42t2.85-8.39A10,10,0,0,1,255.06,0a15.78,15.78,0,0,1,7.3,2V5.19h-.21a11.16,11.16,0,0,0-7.27-2.89,6.83,6.83,0,0,0-5.52,2.42,10.16,10.16,0,0,0-2,6.73,9.93,9.93,0,0,0,2.07,6.69,6.91,6.91,0,0,0,5.51,2.41,10.59,10.59,0,0,0,3.55-.59,12,12,0,0,0,3.69-2.32h.21v3.22A22.1,22.1,0,0,1,258,22.53a14,14,0,0,1-2.94.34"/><path class="cls-1" d="M285.85,22.47h-3.56L275,13.59h-4.5v8.88H267.8V.4h6.25q4.41,0,6.31,1.66a5.5,5.5,0,0,1,1.9,4.35,6.52,6.52,0,0,1-4.47,6.42ZM270.52,2.71v8.64h3.21q3,0,4.35-1.23a4.67,4.67,0,0,0,1.32-3.59q0-3.82-5.17-3.82Z"/><polygon class="cls-1" points="304.45 22.47 290.08 22.47 290.08 0.4 304.45 0.4 304.45 2.77 292.8 2.77 292.8 9.2 304.15 9.2 304.15 11.57 292.8 11.57 292.8 20.1 304.45 20.1 304.45 22.47"/><polygon class="cls-1" points="324.78 22.47 310.41 22.47 310.41 0.4 324.78 0.4 324.78 2.77 313.13 2.77 313.13 9.2 324.49 9.2 324.49 11.57 313.13 11.57 313.13 20.1 324.78 20.1 324.78 22.47"/><polygon class="cls-1" points="347.56 22.47 344.39 22.47 333.27 3.31 333.27 22.47 330.74 22.47 330.74 0.4 334.52 0.4 345.02 18.5 345.02 0.4 347.56 0.4 347.56 22.47"/><path class="cls-1" d="M285.75,37.82Q142.81,37.82,0,48.17v5Q142.57,42.87,285.75,42.82T572,53.22v-5Q429.18,37.87,285.75,37.82Z"/></g></g></svg>