<svg xmlns="http://www.w3.org/2000/svg" viewBox="0 0 836 64.94"><defs><style>.cls-1{fill:#9d9c9c;}.cls-2{fill:#9c9c9c;}</style></defs><title>アセット 14</title><g id="レイヤー_2" data-name="レイヤー 2"><g id="_11" data-name="11"><path class="cls-1" d="M418,37.82A3972.34,3972.34,0,0,0,0,59.91v5a3960.42,3960.42,0,0,1,836,0v-5A3972.32,3972.32,0,0,0,418,37.82Z"/><path class="cls-2" d="M364,22.87A19,19,0,0,1,356.15,21V17.7h.19A11.47,11.47,0,0,0,364,20.57a7,7,0,0,0,4.14-1.08,3.36,3.36,0,0,0,1.5-2.86,3.33,3.33,0,0,0-.64-2.16,4.26,4.26,0,0,0-2.22-1.22l-4.92-1a7.68,7.68,0,0,1-4.15-2.07,5.46,5.46,0,0,1-1.41-3.9,5.54,5.54,0,0,1,2.2-4.5A8.85,8.85,0,0,1,364.21,0a18.18,18.18,0,0,1,7.38,1.63V4.83h-.2a10.88,10.88,0,0,0-7.18-2.53,6.15,6.15,0,0,0-3.68,1A3.12,3.12,0,0,0,359.13,6q0,2.74,3.19,3.53,1.85.34,4.11.84a12.76,12.76,0,0,1,3.24,1.05,5.87,5.87,0,0,1,1.58,1.25,4.71,4.71,0,0,1,.91,1.6,6.19,6.19,0,0,1,.3,2A5.88,5.88,0,0,1,370.13,21,9.49,9.49,0,0,1,364,22.87"/><path class="cls-2" d="M387.25,22.87a10.12,10.12,0,0,1-7.76-3q-2.8-3-2.8-8.42t2.85-8.39A10,10,0,0,1,387.26,0a15.78,15.78,0,0,1,7.3,2V5.19h-.21a11.16,11.16,0,0,0-7.27-2.89,6.83,6.83,0,0,0-5.52,2.42,10.16,10.16,0,0,0-2,6.73,9.93,9.93,0,0,0,2.07,6.69,6.91,6.91,0,0,0,5.51,2.41,10.59,10.59,0,0,0,3.55-.59,12,12,0,0,0,3.69-2.32h.21v3.22a22.1,22.1,0,0,1-4.37,1.67,14,14,0,0,1-2.94.34"/><path class="cls-2" d="M418.05,22.47h-3.56l-7.27-8.88h-4.5v8.88H400V.4h6.25q4.41,0,6.31,1.66a5.5,5.5,0,0,1,1.9,4.35A6.52,6.52,0,0,1,410,12.82ZM402.73,2.71v8.64h3.21q3,0,4.35-1.23a4.67,4.67,0,0,0,1.32-3.59q0-3.82-5.17-3.82Z"/><polygon class="cls-2" points="436.65 22.47 422.28 22.47 422.28 0.4 436.65 0.4 436.65 2.77 425.01 2.77 425.01 9.2 436.36 9.2 436.36 11.57 425.01 11.57 425.01 20.1 436.65 20.1 436.65 22.47"/><polygon class="cls-2" points="456.99 22.47 442.61 22.47 442.61 0.4 456.99 0.4 456.99 2.77 445.34 2.77 445.34 9.2 456.69 9.2 456.69 11.57 445.34 11.57 445.34 20.1 456.99 20.1 456.99 22.47"/><polygon class="cls-2" points="479.76 22.47 476.6 22.47 465.48 3.31 465.48 22.47 462.94 22.47 462.94 0.4 466.72 0.4 477.23 18.5 477.23 0.4 479.76 0.4 479.76 22.47"/></g></g></svg>