<svg xmlns="http://www.w3.org/2000/svg" viewBox="0 0 830 166.17"><defs><style>.cls-1{fill:#9c9c9c;}</style></defs><title>アセット 1</title><g id="レイヤー_2" data-name="レイヤー 2"><g id="レイヤー_1-2" data-name="レイヤー 1"><g id="レイヤー_2-2" data-name="レイヤー 2"><g id="_4DX" data-name=" 4DX"><path class="cls-1" d="M361.5,22.86A18.49,18.49,0,0,1,353.7,21V17.66h.2a11.54,11.54,0,0,0,7.65,2.85,6.82,6.82,0,0,0,4.15-1.1,3.36,3.36,0,0,0,1.5-2.85,3.16,3.16,0,0,0-.65-2.15,4,4,0,0,0-2.2-1.2l-4.9-1a7.75,7.75,0,0,1-4.15-2.05,5.41,5.41,0,0,1-1.4-3.9,5.63,5.63,0,0,1,2.2-4.5A8.68,8.68,0,0,1,361.85,0a18.21,18.21,0,0,1,7.4,1.65v3.2H369a10.84,10.84,0,0,0-7.2-2.55,6.47,6.47,0,0,0-3.7,1,3,3,0,0,0-1.4,2.7c0,1.85,1,3,3.2,3.55,1.25.2,2.6.5,4.1.85a14.46,14.46,0,0,1,3.25,1.05,5.93,5.93,0,0,1,1.6,1.25,4.58,4.58,0,0,1,.9,1.6,6.22,6.22,0,0,1,.3,2,5.89,5.89,0,0,1-2.35,4.7A9.79,9.79,0,0,1,361.5,22.86Z"/><path class="cls-1" d="M384.8,22.86a10.06,10.06,0,0,1-7.75-3c-1.85-2-2.8-4.8-2.8-8.4a12,12,0,0,1,2.85-8.4,10.06,10.06,0,0,1,7.75-3,15.48,15.48,0,0,1,7.3,2V5.21H392a11.27,11.27,0,0,0-7.25-2.9,6.84,6.84,0,0,0-5.5,2.4,10.17,10.17,0,0,0-2,6.75,10.12,10.12,0,0,0,2,6.7,6.91,6.91,0,0,0,5.5,2.4,10.59,10.59,0,0,0,3.55-.6,11.89,11.89,0,0,0,3.7-2.3h.2v3.2a20.92,20.92,0,0,1-4.35,1.65A16.28,16.28,0,0,1,384.8,22.86Z"/><path class="cls-1" d="M415.6,22.46h-3.55l-7.25-8.9h-4.5v8.9h-2.7V.36h6.25q4.43,0,6.3,1.65A5.53,5.53,0,0,1,412,6.36a6.47,6.47,0,0,1-4.45,6.4ZM400.3,2.71v8.65h3.2c2,0,3.45-.4,4.35-1.25a4.62,4.62,0,0,0,1.3-3.6c0-2.55-1.7-3.8-5.15-3.8Z"/><path class="cls-1" d="M434.2,22.46H419.85V.36H434.2V2.71H422.55V9.16H433.9v2.35H422.55v8.55H434.2Z"/><path class="cls-1" d="M454.55,22.46H440.2V.36h14.35V2.71H442.9V9.16h11.35v2.35H442.9v8.55h11.65Z"/><path class="cls-1" d="M477.3,22.46h-3.15L463,3.31V22.46H460.5V.36h3.8l10.5,18.1V.36h2.55v22.1Z"/><path class="cls-1" d="M415,129.81A2766.35,2766.35,0,0,0,0,161.11v5.06a2761.38,2761.38,0,0,1,830,0v-5.06A2766.34,2766.34,0,0,0,415,129.81Z"/></g></g><path class="cls-1" d="M507.67,111.87l-36.4-31.09a1.27,1.27,0,0,0-.82-.3H456.07L496.5,38.91a.32.32,0,0,0-.23-.54H475a1.28,1.28,0,0,0-.87.34l-24.34,23-15-13.36a1.29,1.29,0,0,0-.85-.32H413a.33.33,0,0,0-.23.56l17.39,16.82a1.25,1.25,0,0,0,.89.36H444.6l-36.78,34.56a.32.32,0,0,0,.22.55h28a1.29,1.29,0,0,0,.92-.39l13.28-13.78,25,25.34a1.28,1.28,0,0,0,.91.38h31.31a.32.32,0,0,0,.21-.56"/><path class="cls-1" d="M354.64,99.44v-9h-31.7a.52.52,0,0,1-.52-.52h0V81a2.48,2.48,0,0,1,1-2l36.29-26.53a2.78,2.78,0,0,1,4.42,2.24V99.44ZM354,67.25a.76.76,0,0,0-.44.14L335.31,80.56a.78.78,0,0,0,.44,1.42h19V68a.78.78,0,0,0-.78-.78"/><path class="cls-1" d="M409.72,60.13c-3.63-4.29-8.66-7-16.22-7H374.79A2.78,2.78,0,0,0,372,55.9h0V88.8a2.78,2.78,0,0,0,2.78,2.78H393.5c5.79,0,11-1.54,15.36-6a19.26,19.26,0,0,0,.86-25.42m-7.11,19.17a11,11,0,0,1-8.58,3.8H382.49a1,1,0,0,1-1-.95V62.79a1,1,0,0,1,1-1H394a11,11,0,0,1,8.69,3.8,10.55,10.55,0,0,1,2.48,6.77,10.88,10.88,0,0,1-2.59,6.88"/></g></g></svg>