<svg xmlns="http://www.w3.org/2000/svg" viewBox="0 0 62 91"><defs><style>.cls-1{fill:#fff;}.cls-2{fill:#9A9A9B;}.cls-3{fill:none;stroke:#9A9A9B;stroke-miterlimit:10;stroke-width:3px;}</style></defs><title>アセット 33</title><g id="レイヤー_2" data-name="レイヤー 2"><g id="_12ベタA" data-name="12ベタA"><path class="cls-1" d="M12.5,89.5V8A6.55,6.55,0,0,1,19,1.5H43A6.55,6.55,0,0,1,49.5,8V89.5Z"/><path class="cls-2" d="M43,3a5,5,0,0,1,5,5V88H14V8a5,5,0,0,1,5-5H43m0-3H19a8,8,0,0,0-8,8V91H51V8a8,8,0,0,0-8-8Z"/><path class="cls-1" d="M1.5,89.5V50.61A1.11,1.11,0,0,1,2.61,49.5h8.79a1.11,1.11,0,0,1,1.11,1.11V78A1.5,1.5,0,0,0,14,79.5H48A1.5,1.5,0,0,0,49.5,78V50.61a1.11,1.11,0,0,1,1.11-1.11h8.79a1.11,1.11,0,0,1,1.11,1.11V89.5Z"/><path class="cls-2" d="M59,51V88H3V51h8V78a3,3,0,0,0,3,3H48a3,3,0,0,0,3-3V51h8m.39-3H50.61A2.61,2.61,0,0,0,48,50.61V78H14V50.61A2.61,2.61,0,0,0,11.39,48H2.61A2.61,2.61,0,0,0,0,50.61V89.8A1.2,1.2,0,0,0,1.2,91H60.8A1.2,1.2,0,0,0,62,89.8V50.61A2.61,2.61,0,0,0,59.39,48Z"/><line class="cls-3" x1="11" y1="39.76" x2="51" y2="39.76"/><line class="cls-3" x1="11" y1="19.88" x2="51" y2="19.88"/></g></g></svg>