<svg xmlns="http://www.w3.org/2000/svg" viewBox="0 0 62 91"><defs><style>.cls-1{fill:#9a9a9b;}</style></defs><title>アセット 34</title><g id="レイヤー_2" data-name="レイヤー 2"><g id="_12ベタA" data-name="12ベタA"><path class="cls-1" d="M60.8,91A1.2,1.2,0,0,0,62,89.8V50.61A2.61,2.61,0,0,0,59.39,48H54V81H8V48H2.61A2.61,2.61,0,0,0,0,50.61V89.8A1.2,1.2,0,0,0,1.2,91Z"/><rect class="cls-1" x="11" y="21.38" width="40" height="16.88"/><rect class="cls-1" x="11" y="41.26" width="40" height="36.74"/><path class="cls-1" d="M51,8a8,8,0,0,0-8-8H19a8,8,0,0,0-8,8V18.38H51Z"/></g></g></svg>