<svg xmlns="http://www.w3.org/2000/svg" viewBox="0 0 40 72"><defs><style>.cls-1{fill:#9a999a;}.cls-2{fill:#fff;}</style></defs><title>アセット 64</title><g id="レイヤー_2" data-name="レイヤー 2"><g id="_1" data-name="1"><path class="cls-1" d="M15,25H25A12,12,0,0,1,37,37V69H3V37A12,12,0,0,1,15,25m0-3A15,15,0,0,0,0,37V70a2,2,0,0,0,2,2H38a2,2,0,0,0,2-2V37A15,15,0,0,0,25,22H15"/><path class="cls-1" d="M38,0H2A2,2,0,0,0,0,2V16a2,2,0,0,0,2,2H38a2,2,0,0,0,2-2V2A2,2,0,0,0,38,0ZM3,3H37V15H3Z"/><path class="cls-2" d="M15,25H25A12,12,0,0,1,37,37V69H3V37A12,12,0,0,1,15,25"/><rect class="cls-2" x="3" y="3" width="34" height="12"/></g></g></svg>