<svg xmlns="http://www.w3.org/2000/svg" viewBox="0 0 90 56.5"><defs><style>.cls-1{fill:#9a9a9b;}.cls-2{fill:#fff;}</style></defs><title>アセット 69</title><g id="レイヤー_2" data-name="レイヤー 2"><g id="_9" data-name="9"><polygon class="cls-1" points="90 56.5 0 56.5 0 0 3 0 3 53.5 87 53.5 87 0 90 0 90 56.5"/><path class="cls-1" d="M6.5,48a2,2,0,0,0,2,2h73a2,2,0,0,0,2-2V2a2,2,0,0,0-2-2H8.5a2,2,0,0,0-2,2Zm37-1H9.5V3h34V47Zm37-32V47h-34V3h34V15Z"/><polygon class="cls-2" points="43.5 47 40.45 47 31.5 47 21.5 47 12.55 47 9.5 47 9.5 43.95 9.5 35 9.5 15 9.5 6.05 9.5 3 12.55 3 21.5 3 31.5 3 40.45 3 43.5 3 43.5 6.06 43.5 15 43.5 35 43.5 43.94 43.5 47"/><polygon class="cls-2" points="80.5 15 80.5 35 80.5 43.95 80.5 47 77.44 47 68.5 47 58.5 47 49.55 47 46.5 47 46.5 43.94 46.5 35 46.5 15 46.5 6.06 46.5 3 49.55 3 58.5 3 68.5 3 77.44 3 80.5 3 80.5 6.05 80.5 15"/></g></g></svg>