<svg xmlns="http://www.w3.org/2000/svg" viewBox="0 0 113 56.5"><defs><style>.cls-1{fill:#9a9a9b;}.cls-2{fill:#fff;}</style></defs><title>アセット 72</title><g id="レイヤー_2" data-name="レイヤー 2"><g id="_9" data-name="9"><polygon class="cls-1" points="113 56.5 0 56.5 0 0 3 0 3 53.5 110 53.5 110 0 113 0 113 56.5"/><rect class="cls-2" x="8" y="1.5" width="97" height="47" rx="0.5" ry="0.5"/><path class="cls-1" d="M103.5,3V47H9.5V3h94m1-3H8.5a2,2,0,0,0-2,2V48a2,2,0,0,0,2,2h96a2,2,0,0,0,2-2V2a2,2,0,0,0-2-2Z"/><rect class="cls-1" x="55" y="3" width="3" height="44"/></g></g></svg>