<svg xmlns="http://www.w3.org/2000/svg" viewBox="0 0 62 69"><defs><style>.cls-1{fill:#00a0e9;}</style></defs><title>アセット 28</title><g id="レイヤー_2" data-name="レイヤー 2"><g id="_12ベタA" data-name="12ベタA"><path class="cls-1" d="M9,21H2.61A2.6,2.6,0,0,0,0,23.61V66.39A2.61,2.61,0,0,0,2.61,69H9Z"/><path class="cls-1" d="M53,21h6.39A2.6,2.6,0,0,1,62,23.61V66.39A2.61,2.61,0,0,1,59.39,69H53Z"/><rect class="cls-1" x="11" y="45" width="40" height="11"/><rect class="cls-1" x="11" y="58" width="40" height="11"/><path class="cls-1" d="M43,0H19a8,8,0,0,0-8,8V43H51V8A8,8,0,0,0,43,0Z"/></g></g></svg>