<svg xmlns="http://www.w3.org/2000/svg" viewBox="0 0 1767.2 340.4"><defs><style>.cls-1{fill:#9c9c9c;}</style></defs><title>アセット 1</title><g id="レイヤー_2" data-name="レイヤー 2"><g id="レイヤー_1-2" data-name="レイヤー 1"><path class="cls-1" d="M775.6,45.7A37,37,0,0,1,760,42V35.3h.4A23.07,23.07,0,0,0,775.7,41c3.5,0,6.3-.7,8.3-2.2a6.73,6.73,0,0,0,3-5.7,6.32,6.32,0,0,0-1.3-4.3,8,8,0,0,0-4.4-2.4l-9.8-2c-3.7-.8-6.4-2.1-8.3-4.1a10.83,10.83,0,0,1-2.8-7.8,11.27,11.27,0,0,1,4.4-9c2.9-2.4,6.7-3.5,11.5-3.5a36.43,36.43,0,0,1,14.8,3.3V9.7h-.4a21.68,21.68,0,0,0-14.4-5.1,12.93,12.93,0,0,0-7.4,2,6.1,6.1,0,0,0-2.8,5.3c0,3.7,2.1,6,6.4,7.1,2.5.4,5.2,1,8.2,1.7a28.92,28.92,0,0,1,6.5,2.1,11.87,11.87,0,0,1,3.2,2.5,9.16,9.16,0,0,1,1.8,3.2,12.45,12.45,0,0,1,.6,4,11.79,11.79,0,0,1-4.7,9.5C785,44.5,780.7,45.7,775.6,45.7Z"/><path class="cls-1" d="M822.2,45.7c-6.6,0-11.8-2-15.5-6s-5.6-9.6-5.6-16.8,1.9-12.7,5.7-16.8,9-6.1,15.5-6.1a31,31,0,0,1,14.6,4v6.4h-.4c-4.6-3.8-9.4-5.8-14.5-5.8a13.68,13.68,0,0,0-11,4.8c-2.7,3.2-4.1,7.7-4.1,13.5s1.4,10.2,4.1,13.4a13.82,13.82,0,0,0,11,4.8,21.18,21.18,0,0,0,7.1-1.2,23.79,23.79,0,0,0,7.4-4.6h.4v6.4a41.84,41.84,0,0,1-8.7,3.3A32.55,32.55,0,0,1,822.2,45.7Z"/><path class="cls-1" d="M883.8,44.9h-7.1L862.2,27.1h-9V44.9h-5.4V.7h12.5q8.85,0,12.6,3.3a11.07,11.07,0,0,1,3.8,8.7c0,6.1-3,10.4-8.9,12.8ZM853.2,5.4V22.7h6.4c4,0,6.9-.8,8.7-2.5s2.6-4,2.6-7.2c0-5.1-3.4-7.6-10.3-7.6Z"/><path class="cls-1" d="M921,44.9H892.3V.7H921V5.4H897.7V18.3h22.7V23H897.7V40.1H921Z"/><path class="cls-1" d="M961.7,44.9H933V.7h28.7V5.4H938.4V18.3h22.7V23H938.4V40.1h23.3Z"/><path class="cls-1" d="M1007.2,44.9h-6.3L978.7,6.6V44.9h-5.1V.7h7.6l21,36.2V.7h5.1V44.9Z"/><path class="cls-1" d="M2.1,340.4,0,330.6c43.6-9.1,138.6-26.8,285.3-42.2,181.3-19.1,382.2-28.8,597.2-28.8,214.5,0,415.4,9.6,597.1,28.6,147.4,15.4,243.4,33.1,287.6,42.2l-2,9.8c-44-9.1-139.6-26.7-286.6-42.1-181.4-19-381.9-28.6-596-28.6-214.7,0-415.2,9.7-596.2,28.7C140.2,313.7,45.5,331.3,2.1,340.4Z"/><path class="cls-1" d="M1067.49,223.5l-72.7-62.1a2.54,2.54,0,0,0-1.64-.6H964.43l80.75-83a.64.64,0,0,0-.46-1.08h-42.48a2.56,2.56,0,0,0-1.74.68l-48.61,45.94-30-26.68a2.58,2.58,0,0,0-1.7-.64H878.41a.66.66,0,0,0-.46,1.12l34.73,33.59a2.5,2.5,0,0,0,1.78.72h27.06l-73.46,69a.64.64,0,0,0,.44,1.1h55.92a2.58,2.58,0,0,0,1.84-.78l26.52-27.52,49.93,50.61a2.56,2.56,0,0,0,1.82.76h62.54a.64.64,0,0,0,.42-1.12"/><path class="cls-1" d="M761.85,198.68v-18H698.53a1,1,0,0,1-1-1h0V161.84a5,5,0,0,1,2-4l72.48-53a5.55,5.55,0,0,1,8.83,4.47v89.34Zm-1.28-64.29a1.52,1.52,0,0,0-.88.28L723.24,161a1.56,1.56,0,0,0,.88,2.84h37.95V135.88a1.56,1.56,0,0,0-1.56-1.56"/><path class="cls-1" d="M871.86,120.16c-7.25-8.57-17.3-14-32.4-14H802.09a5.55,5.55,0,0,0-5.57,5.53h0v65.71a5.55,5.55,0,0,0,5.55,5.55h37.39c11.56,0,22-3.08,30.68-12a38.47,38.47,0,0,0,1.72-50.77m-14.2,38.29a22,22,0,0,1-17.14,7.59h-23a2,2,0,0,1-2-1.9V125.47a2,2,0,0,1,2-2h23a22,22,0,0,1,17.36,7.59,21.07,21.07,0,0,1,5,13.52,21.73,21.73,0,0,1-5.17,13.74"/></g></g></svg>