<svg xmlns="http://www.w3.org/2000/svg" viewBox="0 0 830 166.2"><defs><style>.cls-1{fill:#9c9c9c;}</style></defs><title>アセット 1</title><g id="レイヤー_2" data-name="レイヤー 2"><g id="レイヤー_1-2" data-name="レイヤー 1"><path class="cls-1" d="M361.5,22.9a17.86,17.86,0,0,1-7.8-1.9V17.6h.2a11.46,11.46,0,0,0,7.6,2.9,6.89,6.89,0,0,0,4.1-1.1,3.27,3.27,0,0,0,1.5-2.9,3.28,3.28,0,0,0-.6-2.1,3.54,3.54,0,0,0-2.2-1.2l-4.9-1a7.2,7.2,0,0,1-4.1-2,5.21,5.21,0,0,1-1.4-3.9,5.78,5.78,0,0,1,2.2-4.5A8.75,8.75,0,0,1,361.9,0a19.72,19.72,0,0,1,7.4,1.6V4.8h-.2a10.71,10.71,0,0,0-7.2-2.5,6,6,0,0,0-3.7,1A3.19,3.19,0,0,0,356.8,6c0,1.8,1,3,3.2,3.6,1.2.2,2.6.5,4.1.9a20.84,20.84,0,0,1,3.2,1,6.69,6.69,0,0,1,1.6,1.2,5.07,5.07,0,0,1,.9,1.6,6.19,6.19,0,0,1-2.1,6.8A9.34,9.34,0,0,1,361.5,22.9Z"/><path class="cls-1" d="M384.8,22.9a10.25,10.25,0,0,1-7.8-3c-1.9-2-2.8-4.8-2.8-8.4s1-6.4,2.9-8.4a10.25,10.25,0,0,1,7.8-3,14.64,14.64,0,0,1,7.3,2V5.3H392a11.25,11.25,0,0,0-7.2-2.9,6.91,6.91,0,0,0-5.5,2.4c-1.4,1.6-2,3.9-2,6.8a10.3,10.3,0,0,0,2,6.7,6.91,6.91,0,0,0,5.5,2.4,10.3,10.3,0,0,0,3.5-.6,11,11,0,0,0,3.7-2.3h.2V21a16,16,0,0,1-4.4,1.6C386.8,22.7,385.7,22.9,384.8,22.9Z"/><path class="cls-1" d="M415.6,22.4h-3.5l-7.2-8.9h-4.5v8.9h-2.7V.4h6.2c3,0,5,.6,6.3,1.6a5.15,5.15,0,0,1,1.9,4.3c0,3.1-1.5,5.2-4.5,6.4ZM400.3,2.7v8.6h3.2a6.61,6.61,0,0,0,4.4-1.2,4.55,4.55,0,0,0,1.3-3.6c0-2.5-1.7-3.8-5.1-3.8Z"/><path class="cls-1" d="M434.2,22.4H419.8V.4h14.4V2.7H422.6V9.2H434v2.4H422.6v8.6h11.6Z"/><path class="cls-1" d="M454.6,22.4H440.2V.4h14.4V2.7H443V9.2h11.4v2.4H443v8.6h11.6Z"/><path class="cls-1" d="M477.3,22.4h-3.1L463.1,3.3V22.4h-2.5V.4h3.8l10.5,18.1V.4h2.5l-.1,22Z"/><path class="cls-1" d="M415,129.8A2763.5,2763.5,0,0,0,0,161.1v5.1a2758.14,2758.14,0,0,1,830,0v-5.1A2763.5,2763.5,0,0,0,415,129.8Z"/><path class="cls-1" d="M507.67,111.87l-36.4-31.09a1.27,1.27,0,0,0-.82-.3H456.07L496.5,38.91a.32.32,0,0,0-.23-.54H475a1.28,1.28,0,0,0-.87.34l-24.34,23-15-13.36a1.29,1.29,0,0,0-.85-.32H413a.33.33,0,0,0-.23.56l17.39,16.82a1.25,1.25,0,0,0,.89.36H444.6l-36.78,34.56a.32.32,0,0,0,.22.55h28a1.29,1.29,0,0,0,.92-.39l13.28-13.78,25,25.34a1.28,1.28,0,0,0,.91.38h31.31a.32.32,0,0,0,.21-.56"/><path class="cls-1" d="M354.64,99.44v-9h-31.7a.52.52,0,0,1-.52-.52h0V81a2.48,2.48,0,0,1,1-2l36.29-26.53a2.78,2.78,0,0,1,4.42,2.24V99.44ZM354,67.25a.76.76,0,0,0-.44.14L335.31,80.56a.78.78,0,0,0,.44,1.42h19V68a.78.78,0,0,0-.78-.78"/><path class="cls-1" d="M409.72,60.13c-3.63-4.29-8.66-7-16.22-7H374.79A2.78,2.78,0,0,0,372,55.9h0V88.8a2.78,2.78,0,0,0,2.78,2.78H393.5c5.79,0,11-1.54,15.36-6a19.26,19.26,0,0,0,.86-25.42m-7.11,19.17a11,11,0,0,1-8.58,3.8H382.49a1,1,0,0,1-1-.95V62.79a1,1,0,0,1,1-1H394a11,11,0,0,1,8.69,3.8,10.55,10.55,0,0,1,2.48,6.77,10.88,10.88,0,0,1-2.59,6.88"/></g></g></svg>