<svg xmlns="http://www.w3.org/2000/svg" viewBox="0 0 216 330"><defs><style>.cls-1{fill:#9d9d9d;}</style></defs><title>アセット 55</title><g id="レイヤー_2" data-name="レイヤー 2"><g id="_7" data-name="7"><polygon class="cls-1" points="216 330 106 330 106 0 110 0 110 326 212 326 212 0 216 0 216 330"/><rect class="cls-1" x="159.07" y="43.96" width="3.86" height="225.04"/><polygon class="cls-1" points="168.88 52.91 160.97 34.96 153.13 52.91 168.88 52.91"/><polygon class="cls-1" points="110 330 0 330 0 0 4 0 4 326 106 326 106 0 110 0 110 330"/><rect class="cls-1" x="53.07" y="43.96" width="3.86" height="225.04"/><polygon class="cls-1" points="62.88 52.91 54.98 34.96 47.13 52.91 62.88 52.91"/></g></g></svg>