<svg xmlns="http://www.w3.org/2000/svg" viewBox="0 0 791 125.95"><defs><style>.cls-1{fill:none;stroke:#9a9a9b;stroke-linecap:round;stroke-linejoin:round;stroke-width:3px;}.cls-2{fill:#9a9a9b;}</style></defs><title>アセット 37</title><g id="レイヤー_2" data-name="レイヤー 2"><g id="_5" data-name="5"><polyline class="cls-1" points="274.83 15.45 1.5 15.45 1.5 124.45 789.5 124.45 789.5 15.45 516.17 15.45"/><path class="cls-2" d="M316.17,5.82a4.44,4.44,0,0,0-.62,1.5A25.93,25.93,0,0,1,310.42,17a24.9,24.9,0,0,1-8.9,6.32,7.71,7.71,0,0,0-2.12-2.62,21.7,21.7,0,0,0,5.47-2.92,19.89,19.89,0,0,0,7.3-10.55l-7.52.1a24.17,24.17,0,0,1-5.85,6.42,6.64,6.64,0,0,0-2.42-2.15,19.23,19.23,0,0,0,6.47-7.25A9.41,9.41,0,0,0,304.12,1l3.42.7a3.46,3.46,0,0,0-.5.9c-.45,1-.62,1.37-1,2,.27,0,.67,0,1.2,0l5.47-.08A6.89,6.89,0,0,0,314,4.42a13.66,13.66,0,0,0-1.72-2.87l2-.7a11.73,11.73,0,0,1,1.92,3.22l-1.32.47Zm1.07-1.9A16.1,16.1,0,0,0,315.37.75L317.32,0a13,13,0,0,1,1.92,3.1Z"/><path class="cls-2" d="M345.82,9.47a11.34,11.34,0,0,0-.7,1.57,17.67,17.67,0,0,1-5.8,8.45,22.24,22.24,0,0,1-6.55,3.4,8.71,8.71,0,0,0-1.95-2.9,16.22,16.22,0,0,0,6.95-3.3,13,13,0,0,0,4-5.85H329.62a25.31,25.31,0,0,0-3.2.13v-3a17.7,17.7,0,0,0,3.25.17h11.9a10.94,10.94,0,0,0,2.82-.22ZM328.55,1.9a14.19,14.19,0,0,0,2.92.17h8.72a14.19,14.19,0,0,0,2.92-.17V5a19.27,19.27,0,0,0-2.87-.12h-8.82a19.27,19.27,0,0,0-2.87.13Z"/><path class="cls-2" d="M355.25,18.54a23.81,23.81,0,0,0,7.4-1.85,16.71,16.71,0,0,0,7.42-6.12,20.88,20.88,0,0,0,2.55-5A10.78,10.78,0,0,0,375.27,8c-2.12,4.57-4.5,7.52-7.92,9.8a27,27,0,0,1-9.52,3.75,8.94,8.94,0,0,0-1.65.42ZM357.37,3a35.42,35.42,0,0,1,6.45,4.82l-2.15,2.72A26.23,26.23,0,0,0,355.3,5.5Z"/><path class="cls-2" d="M387.2,22.67a16.82,16.82,0,0,0,.15-2.8v-16a16,16,0,0,0-.15-2.55h3.42a16.65,16.65,0,0,0-.1,2.62V8.57a73.31,73.31,0,0,1,11.35,5.27l-1.75,2.95A59.05,59.05,0,0,0,391.27,12a8.07,8.07,0,0,1-.85-.43,12.89,12.89,0,0,1,.1,1.7v6.6a27.37,27.37,0,0,0,.1,2.77ZM397.72,2.9a13.53,13.53,0,0,1,2.4,3.37l-1.87,1a16.55,16.55,0,0,0-2.4-3.42Zm3.22,2.87a16.47,16.47,0,0,0-2.35-3.32l1.8-1a14.26,14.26,0,0,1,2.4,3.22Z"/><path class="cls-2" d="M431.62,5.55A4.71,4.71,0,0,0,431,7a25.91,25.91,0,0,1-5.12,9.65A25.24,25.24,0,0,1,417,23a7.7,7.7,0,0,0-2.12-2.62,22.49,22.49,0,0,0,5.47-2.95,19.79,19.79,0,0,0,7.3-10.55L420.1,7a24.47,24.47,0,0,1-5.85,6.4,6.65,6.65,0,0,0-2.42-2.15A19.23,19.23,0,0,0,418.3,4a9.33,9.33,0,0,0,1.27-3.3l3.42.67a5.12,5.12,0,0,0-.42.77,5,5,0,0,0-.33.7l-.33.65a5.87,5.87,0,0,1-.4.8c.33,0,.73,0,1.2,0l5.47-.08A4.42,4.42,0,0,0,430,4Z"/><path class="cls-2" d="M460.82,9.47a11.51,11.51,0,0,0-.7,1.57,17.67,17.67,0,0,1-5.8,8.45,22.24,22.24,0,0,1-6.55,3.4,8.72,8.72,0,0,0-2-2.9,16.22,16.22,0,0,0,6.95-3.3,13,13,0,0,0,4-5.85H444.62a25.32,25.32,0,0,0-3.2.13v-3a17.72,17.72,0,0,0,3.25.17h11.9a10.94,10.94,0,0,0,2.82-.22ZM443.55,1.9a14.19,14.19,0,0,0,2.92.17h8.72a14.2,14.2,0,0,0,2.92-.17V5a19.26,19.26,0,0,0-2.87-.12h-8.82a19.28,19.28,0,0,0-2.87.13Z"/><path class="cls-2" d="M488.17,22.37a48,48,0,0,0-7.67-7.42A29.7,29.7,0,0,1,471,22.17a10,10,0,0,0-2-2.77,20.61,20.61,0,0,0,5-2.75,24.09,24.09,0,0,0,8.4-10.17l.28-.65c-.4,0-.4,0-8.27.15a19.59,19.59,0,0,0-2.72.2l-.1-3.2a11,11,0,0,0,2.2.15h.6l8.8-.12a5.41,5.41,0,0,0,2.22-.27L487,4.42a4.81,4.81,0,0,0-.8,1.35,33.14,33.14,0,0,1-3.9,6.9,38.76,38.76,0,0,1,4.62,3.62c.63.55.63.55,3.65,3.47Z"/></g></g></svg>