<svg xmlns="http://www.w3.org/2000/svg" viewBox="0 0 721 125.32"><defs><style>.cls-1{fill:#fff;stroke:#9a9a9b;stroke-linecap:round;stroke-linejoin:round;stroke-width:3px;}.cls-2{fill:#9a9a9b;}</style></defs><title>アセット 35</title><g id="レイヤー_2" data-name="レイヤー 2"><g id="_6" data-name="6"><polyline class="cls-1" points="229.66 14.82 1.5 14.82 1.5 123.82 719.5 123.82 719.5 14.82 491.33 14.82"/><path class="cls-2" d="M262.77,2.75a13.64,13.64,0,0,0,1.38,0,2.75,2.75,0,1,1,2.77,2.82l-.27,0a25.72,25.72,0,0,1-3.37,8.07,21.8,21.8,0,0,1-6.22,6,26.67,26.67,0,0,1-4.75,2.47,9.2,9.2,0,0,0-2.2-3,20.31,20.31,0,0,0,5.47-2.55,17.31,17.31,0,0,0,7.57-10.9h-11.9a19.85,19.85,0,0,0-3.15.15V2.57a17.66,17.66,0,0,0,3.2.17Zm2.7,0a1.42,1.42,0,1,0,2.85,0,1.41,1.41,0,0,0-1.42-1.42A1.44,1.44,0,0,0,265.47,2.75Z"/><path class="cls-2" d="M282.67,1.27a19.32,19.32,0,0,0-.15,2.52l-.12,14.27a18,18,0,0,0,6.82-2.75,14.79,14.79,0,0,0,5.1-5.72,11.73,11.73,0,0,0,2.37,2.55A18.64,18.64,0,0,1,291.12,18a22.79,22.79,0,0,1-9.1,3.42,7.16,7.16,0,0,0-1.5.42l-1.6-1.92a8.81,8.81,0,0,0,.23-2.57l.1-13.5a12.16,12.16,0,0,0-.12-2.58Z"/><path class="cls-2" d="M307.17,14.87a78.26,78.26,0,0,1,16.6,3.95L322.7,22a45.8,45.8,0,0,0-8.85-2.8A69.51,69.51,0,0,0,306,17.72Zm2-7a78.5,78.5,0,0,1,13,2.9l-1,3.08a42.94,42.94,0,0,0-6.87-2A55,55,0,0,0,308,10.7Zm.38-6.9a83.21,83.21,0,0,1,13.52,2.7l-1,3.07a65.9,65.9,0,0,0-13.65-2.87Z"/><path class="cls-2" d="M344.87,6.85a11.42,11.42,0,0,0-.1,2c-.1,4.27-.78,6.67-2.47,8.85a14.45,14.45,0,0,1-6.45,4.5,8.85,8.85,0,0,0-2-2.85,11.52,11.52,0,0,0,4.37-2.12c2.55-2,3.35-4.17,3.35-8.9a6.3,6.3,0,0,0-.12-1.5ZM355,3.7a7,7,0,0,0-1,1.75,15.87,15.87,0,0,1-3.85,5,15.72,15.72,0,0,1-3,2.07,8.44,8.44,0,0,0-2.25-2.27A11.6,11.6,0,0,0,348.57,8a10.36,10.36,0,0,0,2.37-3.17H337.82a24,24,0,0,0-3.4.15V1.82a19.87,19.87,0,0,0,3.45.2h13a6.9,6.9,0,0,0,2.42-.22Z"/><path class="cls-2" d="M373.77,1.35a7.66,7.66,0,0,0-.65,1.8,148.38,148.38,0,0,1-4.95,14.25,98.91,98.91,0,0,0,10.4-1.27c-.27-.6-.57-1.15-1.17-2.27a31,31,0,0,0-2.37-4l2.82-1.1a58.48,58.48,0,0,1,6,11.57l-3,1.57a25.76,25.76,0,0,0-1.2-3.1l-.9.2c-2.52.52-6.67,1-14.15,1.77a13.68,13.68,0,0,0-2.27.3l-.45-3.37h.65c.5,0,1.1,0,2.15-.08,1.32-3.15,2.32-6,3.62-10.07A39.51,39.51,0,0,0,370.15.65Z"/><path class="cls-2" d="M411,4.92a4.69,4.69,0,0,0-.62,1.5,25.92,25.92,0,0,1-5.12,9.65,25.25,25.25,0,0,1-8.9,6.35,7.72,7.72,0,0,0-2.12-2.62,22.47,22.47,0,0,0,5.47-2.95A19.79,19.79,0,0,0,407,6.3l-7.52.13a24.44,24.44,0,0,1-5.85,6.4,6.65,6.65,0,0,0-2.42-2.15,19.23,19.23,0,0,0,6.47-7.25,9.33,9.33,0,0,0,1.28-3.3l3.42.67a5,5,0,0,0-.42.77,5,5,0,0,0-.33.7l-.33.65a5.74,5.74,0,0,1-.4.8c.33,0,.72,0,1.2,0l5.47-.08a4.43,4.43,0,0,0,1.83-.25Z"/><path class="cls-2" d="M440.19,8.85a11.4,11.4,0,0,0-.7,1.57,17.67,17.67,0,0,1-5.8,8.45,22.24,22.24,0,0,1-6.55,3.4,8.72,8.72,0,0,0-2-2.9,16.22,16.22,0,0,0,6.95-3.3,13,13,0,0,0,4-5.85H424a25.3,25.3,0,0,0-3.2.13v-3a17.7,17.7,0,0,0,3.25.17h11.9a11,11,0,0,0,2.82-.22ZM422.92,1.27a14.2,14.2,0,0,0,2.92.17h8.72a14.19,14.19,0,0,0,2.92-.17V4.35a19.26,19.26,0,0,0-2.87-.12H425.8a19.28,19.28,0,0,0-2.87.13Z"/><path class="cls-2" d="M467.54,21.74a48,48,0,0,0-7.67-7.42,29.7,29.7,0,0,1-9.52,7.22,10,10,0,0,0-2-2.77,20.63,20.63,0,0,0,5-2.75,24.1,24.1,0,0,0,8.4-10.17L462,5.2c-.4,0-.4,0-8.27.15a19.59,19.59,0,0,0-2.72.2l-.1-3.2a10.94,10.94,0,0,0,2.2.15h.6l8.8-.12a5.41,5.41,0,0,0,2.22-.27l1.65,1.7a4.83,4.83,0,0,0-.8,1.35,33.09,33.09,0,0,1-3.9,6.9,38.85,38.85,0,0,1,4.62,3.62c.62.55.62.55,3.65,3.47Z"/></g></g></svg>