<svg xmlns="http://www.w3.org/2000/svg" viewBox="0 0 1012 75.28"><defs><style>.cls-1{fill:#9c9c9c;}</style></defs><title>アセット 40</title><g id="レイヤー_2" data-name="レイヤー 2"><g id="_1" data-name="1"><path class="cls-1" d="M452,22.87A19,19,0,0,1,444.2,21V17.7h.19A11.47,11.47,0,0,0,452,20.57a7,7,0,0,0,4.14-1.08,3.36,3.36,0,0,0,1.5-2.86,3.33,3.33,0,0,0-.64-2.16,4.26,4.26,0,0,0-2.22-1.22l-4.92-1a7.68,7.68,0,0,1-4.15-2.07,5.46,5.46,0,0,1-1.41-3.9,5.54,5.54,0,0,1,2.2-4.5A8.85,8.85,0,0,1,452.25,0a18.18,18.18,0,0,1,7.38,1.63V4.83h-.2a10.88,10.88,0,0,0-7.18-2.53,6.15,6.15,0,0,0-3.68,1A3.12,3.12,0,0,0,447.17,6q0,2.74,3.19,3.53,1.85.34,4.11.84a12.76,12.76,0,0,1,3.24,1.05,5.87,5.87,0,0,1,1.58,1.25,4.71,4.71,0,0,1,.91,1.6,6.19,6.19,0,0,1,.3,2A5.88,5.88,0,0,1,458.17,21,9.49,9.49,0,0,1,452,22.87"/><path class="cls-1" d="M475.29,22.87a10.12,10.12,0,0,1-7.76-3q-2.8-3-2.8-8.42t2.85-8.39A10,10,0,0,1,475.31,0a15.78,15.78,0,0,1,7.3,2V5.19h-.21a11.16,11.16,0,0,0-7.27-2.89,6.83,6.83,0,0,0-5.52,2.42,10.16,10.16,0,0,0-2,6.73,9.93,9.93,0,0,0,2.07,6.69,6.91,6.91,0,0,0,5.51,2.41,10.59,10.59,0,0,0,3.55-.59,12,12,0,0,0,3.69-2.32h.21v3.22a22.1,22.1,0,0,1-4.37,1.67,14,14,0,0,1-2.94.34"/><path class="cls-1" d="M506.1,22.47h-3.56l-7.27-8.88h-4.5v8.88H488V.4h6.25q4.41,0,6.31,1.66a5.5,5.5,0,0,1,1.9,4.35A6.52,6.52,0,0,1,498,12.82ZM490.77,2.71v8.64H494q3,0,4.35-1.23a4.67,4.67,0,0,0,1.32-3.59q0-3.82-5.17-3.82Z"/><polygon class="cls-1" points="524.7 22.47 510.33 22.47 510.33 0.4 524.7 0.4 524.7 2.77 513.05 2.77 513.05 9.2 524.4 9.2 524.4 11.57 513.05 11.57 513.05 20.1 524.7 20.1 524.7 22.47"/><polygon class="cls-1" points="545.03 22.47 530.66 22.47 530.66 0.4 545.03 0.4 545.03 2.77 533.38 2.77 533.38 9.2 544.74 9.2 544.74 11.57 533.38 11.57 533.38 20.1 545.03 20.1 545.03 22.47"/><polygon class="cls-1" points="567.8 22.47 564.64 22.47 553.52 3.31 553.52 22.47 550.99 22.47 550.99 0.4 554.77 0.4 565.27 18.5 565.27 0.4 567.8 0.4 567.8 22.47"/><path class="cls-1" d="M506,37.82A3970,3970,0,0,0,0,70.23v5a3960.38,3960.38,0,0,1,1012,0v-5A3970.06,3970.06,0,0,0,506,37.82Z"/></g></g></svg>