<svg xmlns="http://www.w3.org/2000/svg" viewBox="0 0 572 53.2"><defs><style>.cls-1{fill:#9c9c9c;}</style></defs><title>アセット 48</title><g id="レイヤー_2" data-name="レイヤー 2"><g id="_5" data-name="5"><path class="cls-1" d="M231.88,22.87A19,19,0,0,1,224.08,21V17.7h.19a11.47,11.47,0,0,0,7.65,2.87,7,7,0,0,0,4.14-1.08,3.36,3.36,0,0,0,1.5-2.86,3.33,3.33,0,0,0-.64-2.16,4.26,4.26,0,0,0-2.22-1.22l-4.92-1a7.68,7.68,0,0,1-4.15-2.07,5.46,5.46,0,0,1-1.41-3.9,5.54,5.54,0,0,1,2.2-4.5A8.85,8.85,0,0,1,232.13,0a18.18,18.18,0,0,1,7.38,1.63V4.83h-.2a10.88,10.88,0,0,0-7.18-2.53,6.15,6.15,0,0,0-3.68,1A3.12,3.12,0,0,0,227.05,6q0,2.74,3.19,3.53,1.85.34,4.11.84a12.76,12.76,0,0,1,3.24,1.05,5.87,5.87,0,0,1,1.58,1.25,4.71,4.71,0,0,1,.91,1.6,6.19,6.19,0,0,1,.3,2A5.88,5.88,0,0,1,238.05,21a9.49,9.49,0,0,1-6.17,1.89"/><path class="cls-1" d="M255.17,22.87a10.12,10.12,0,0,1-7.76-3q-2.8-3-2.8-8.42t2.85-8.39A10,10,0,0,1,255.19,0a15.78,15.78,0,0,1,7.3,2V5.19h-.21A11.16,11.16,0,0,0,255,2.3a6.83,6.83,0,0,0-5.52,2.42,10.16,10.16,0,0,0-2,6.73,9.93,9.93,0,0,0,2.07,6.69A6.91,6.91,0,0,0,255,20.55a10.59,10.59,0,0,0,3.55-.59,12,12,0,0,0,3.69-2.32h.21v3.22a22.1,22.1,0,0,1-4.37,1.67,14,14,0,0,1-2.94.34"/><path class="cls-1" d="M286,22.47h-3.56l-7.27-8.88h-4.5v8.88h-2.72V.4h6.25q4.41,0,6.31,1.66a5.5,5.5,0,0,1,1.9,4.35,6.52,6.52,0,0,1-4.47,6.42ZM270.66,2.71v8.64h3.21q3,0,4.35-1.23a4.67,4.67,0,0,0,1.32-3.59q0-3.82-5.17-3.82Z"/><polygon class="cls-1" points="304.58 22.47 290.21 22.47 290.21 0.4 304.58 0.4 304.58 2.77 292.93 2.77 292.93 9.2 304.29 9.2 304.29 11.57 292.93 11.57 292.93 20.1 304.58 20.1 304.58 22.47"/><polygon class="cls-1" points="324.91 22.47 310.54 22.47 310.54 0.4 324.91 0.4 324.91 2.77 313.26 2.77 313.26 9.2 324.62 9.2 324.62 11.57 313.26 11.57 313.26 20.1 324.91 20.1 324.91 22.47"/><polygon class="cls-1" points="347.69 22.47 344.52 22.47 333.4 3.31 333.4 22.47 330.87 22.47 330.87 0.4 334.65 0.4 345.15 18.5 345.15 0.4 347.69 0.4 347.69 22.47"/><path class="cls-1" d="M285.88,37.82q-143,0-285.88,10.35v5Q142.64,42.86,285.88,42.82T572,53.2v-5Q429.25,37.86,285.88,37.82Z"/></g></g></svg>