<svg xmlns="http://www.w3.org/2000/svg" viewBox="0 0 880 67.94"><defs><style>.cls-1{fill:#9c9c9c;}</style></defs><title>アセット 48</title><g id="レイヤー_2" data-name="レイヤー 2"><g id="_5" data-name="5"><path class="cls-1" d="M391.42,22.87A19,19,0,0,1,383.61,21V17.7h.19a11.47,11.47,0,0,0,7.65,2.87,7,7,0,0,0,4.14-1.08,3.36,3.36,0,0,0,1.5-2.86,3.33,3.33,0,0,0-.64-2.16,4.26,4.26,0,0,0-2.22-1.22l-4.92-1a7.68,7.68,0,0,1-4.15-2.07,5.46,5.46,0,0,1-1.41-3.9,5.54,5.54,0,0,1,2.2-4.5A8.85,8.85,0,0,1,391.67,0a18.18,18.18,0,0,1,7.38,1.63V4.83h-.2a10.88,10.88,0,0,0-7.18-2.53,6.15,6.15,0,0,0-3.68,1A3.12,3.12,0,0,0,386.59,6q0,2.74,3.19,3.53,1.85.34,4.11.84a12.76,12.76,0,0,1,3.24,1.05,5.87,5.87,0,0,1,1.58,1.25,4.71,4.71,0,0,1,.91,1.6,6.19,6.19,0,0,1,.3,2A5.88,5.88,0,0,1,397.59,21a9.49,9.49,0,0,1-6.17,1.89"/><path class="cls-1" d="M414.71,22.87a10.12,10.12,0,0,1-7.76-3q-2.8-3-2.8-8.42T407,3.06A10,10,0,0,1,414.72,0,15.78,15.78,0,0,1,422,2V5.19h-.21a11.16,11.16,0,0,0-7.27-2.89A6.83,6.83,0,0,0,409,4.72a10.16,10.16,0,0,0-2,6.73,9.93,9.93,0,0,0,2.07,6.69,6.91,6.91,0,0,0,5.51,2.41,10.59,10.59,0,0,0,3.55-.59,12,12,0,0,0,3.69-2.32H422v3.22a22.1,22.1,0,0,1-4.37,1.67,14,14,0,0,1-2.94.34"/><path class="cls-1" d="M445.51,22.47H442l-7.27-8.88h-4.5v8.88h-2.72V.4h6.25q4.41,0,6.31,1.66a5.5,5.5,0,0,1,1.9,4.35,6.52,6.52,0,0,1-4.47,6.42ZM430.19,2.71v8.64h3.21q3,0,4.35-1.23a4.67,4.67,0,0,0,1.32-3.59q0-3.82-5.17-3.82Z"/><polygon class="cls-1" points="464.12 22.47 449.75 22.47 449.75 0.4 464.12 0.4 464.12 2.77 452.47 2.77 452.47 9.2 463.82 9.2 463.82 11.57 452.47 11.57 452.47 20.1 464.12 20.1 464.12 22.47"/><polygon class="cls-1" points="484.45 22.47 470.08 22.47 470.08 0.4 484.45 0.4 484.45 2.77 472.8 2.77 472.8 9.2 484.15 9.2 484.15 11.57 472.8 11.57 472.8 20.1 484.45 20.1 484.45 22.47"/><polygon class="cls-1" points="507.22 22.47 504.06 22.47 492.94 3.31 492.94 22.47 490.41 22.47 490.41 0.4 494.19 0.4 504.69 18.5 504.69 0.4 507.22 0.4 507.22 22.47"/><path class="cls-1" d="M445.42,37.82A3972,3972,0,0,0,0,62.91v5a3960.55,3960.55,0,0,1,880-1.21v-5A3972.22,3972.22,0,0,0,445.42,37.82Z"/></g></g></svg>