<?xml version="1.0" encoding="utf-8"?>
<!-- Generator: Adobe Illustrator 24.2.1, SVG Export Plug-In . SVG Version: 6.00 Build 0)  -->
<svg version="1.1" id="レイヤー_1" xmlns="http://www.w3.org/2000/svg" xmlns:xlink="http://www.w3.org/1999/xlink" x="0px"
	 y="0px" width="1112px" height="130.9px" viewBox="0 0 1112 130.9" style="enable-background:new 0 0 1112 130.9;"
	 xml:space="preserve">
<style type="text/css">
	.st0{fill:#9C9C9C;}
</style>
<g id="レイヤー_2_1_">
	<g id="IMAX">
		<path class="st0" d="M502,62.9c-2.7-0.1-5.4-0.7-7.8-1.9v-3.3h0.2c2.1,1.9,4.8,2.9,7.6,2.9c1.5,0.1,2.9-0.3,4.1-1.1
			c1-0.6,1.5-1.7,1.5-2.9c0-0.8-0.2-1.5-0.6-2.2c-0.6-0.6-1.4-1-2.2-1.2l-4.9-1c-1.6-0.2-3-1-4.1-2.1c-1-1.1-1.5-2.5-1.4-3.9
			c0-1.8,0.8-3.4,2.2-4.5c1.6-1.2,3.7-1.9,5.8-1.8c2.5,0,5.1,0.6,7.4,1.6v3.2h-0.2c-2-1.7-4.6-2.6-7.2-2.5c-1.3-0.1-2.6,0.3-3.7,1
			c-0.9,0.6-1.4,1.6-1.4,2.7c0,1.8,1.1,3,3.2,3.5c1.2,0.2,2.6,0.5,4.1,0.8c1.1,0.2,2.2,0.6,3.2,1c0.6,0.3,1.1,0.7,1.6,1.2
			c0.4,0.5,0.7,1,0.9,1.6c0.2,0.6,0.3,1.3,0.3,2c0,1.9-0.9,3.6-2.3,4.7C506.4,62.3,504.2,63,502,62.9"/>
		<path class="st0" d="M525.3,62.9c-2.9,0.2-5.7-0.9-7.8-3c-1.9-2-2.8-4.8-2.8-8.4s1-6.4,2.8-8.4c2-2.1,4.8-3.2,7.7-3.1
			c2.6,0.1,5.1,0.8,7.3,2v3.2h-0.2c-2-1.8-4.6-2.8-7.3-2.9c-2.1-0.1-4.2,0.8-5.5,2.4c-1.4,1.9-2.2,4.3-2,6.7
			c-0.1,2.4,0.6,4.8,2.1,6.7c1.4,1.6,3.4,2.5,5.5,2.4c1.2,0,2.4-0.2,3.5-0.6c1.4-0.5,2.6-1.3,3.7-2.3h0.2v3.2
			c-1.4,0.7-2.9,1.3-4.4,1.7C527.3,62.8,526.3,62.9,525.3,62.9"/>
		<path class="st0" d="M556.1,62.5h-3.6l-7.3-8.9h-4.5v8.9H538V40.4h6.2c2.9,0,5,0.6,6.3,1.7c1.3,1.1,2,2.7,1.9,4.3
			c0.1,2.9-1.7,5.5-4.5,6.4L556.1,62.5z M540.8,42.7v8.6h3.2c2,0,3.5-0.4,4.3-1.2c0.9-1,1.4-2.3,1.3-3.6c0-2.5-1.7-3.8-5.2-3.8
			H540.8z"/>
		<polygon class="st0" points="574.7,62.5 560.3,62.5 560.3,40.4 574.7,40.4 574.7,42.8 563,42.8 563,49.2 574.4,49.2 574.4,51.6 
			563,51.6 563,60.1 574.7,60.1 		"/>
		<polygon class="st0" points="595,62.5 580.7,62.5 580.7,40.4 595,40.4 595,42.8 583.4,42.8 583.4,49.2 594.7,49.2 594.7,51.6 
			583.4,51.6 583.4,60.1 595,60.1 		"/>
		<polygon class="st0" points="617.8,62.5 614.6,62.5 603.5,43.3 603.5,62.5 601,62.5 601,40.4 604.8,40.4 615.3,58.5 615.3,40.4 
			617.8,40.4 		"/>
		<path class="st0" d="M556,88.6c-186,0-371.7,12.4-556,37.2v5c369-49.7,743-49.7,1112,0v-5C927.7,101,742,88.6,556,88.6z"/>
	</g>
</g>
</svg>
