<svg xmlns="http://www.w3.org/2000/svg" viewBox="0 0 830 242.24"><defs><style>.cls-1{fill:#9c9c9c;}</style></defs><title>アセット 80</title><g id="レイヤー_2" data-name="レイヤー 2"><g id="_4DX" data-name="4DX"><path class="cls-1" d="M361.5,22.85A18.49,18.49,0,0,1,353.7,21V17.65h.2a11.54,11.54,0,0,0,7.65,2.85,6.82,6.82,0,0,0,4.15-1.1,3.36,3.36,0,0,0,1.5-2.85,3.16,3.16,0,0,0-.65-2.15,4,4,0,0,0-2.2-1.2l-4.9-1a7.75,7.75,0,0,1-4.15-2.05,5.41,5.41,0,0,1-1.4-3.9,5.63,5.63,0,0,1,2.2-4.5A8.68,8.68,0,0,1,361.85,0a18.21,18.21,0,0,1,7.4,1.65v3.2h-.2a10.84,10.84,0,0,0-7.2-2.55,6.47,6.47,0,0,0-3.7,1A3,3,0,0,0,356.75,6c0,1.85,1,3,3.2,3.55,1.25.2,2.6.5,4.1.85a14.46,14.46,0,0,1,3.25,1.05,5.93,5.93,0,0,1,1.6,1.25,4.58,4.58,0,0,1,.9,1.6,6.22,6.22,0,0,1,.3,2A5.89,5.89,0,0,1,367.75,21,9.79,9.79,0,0,1,361.5,22.85Z"/><path class="cls-1" d="M384.8,22.85a10.06,10.06,0,0,1-7.75-3c-1.85-2-2.8-4.8-2.8-8.4s1-6.35,2.85-8.4a10.06,10.06,0,0,1,7.75-3,15.48,15.48,0,0,1,7.3,2V5.2H392a11.27,11.27,0,0,0-7.25-2.9,6.84,6.84,0,0,0-5.5,2.4,10.17,10.17,0,0,0-2,6.75,10.12,10.12,0,0,0,2,6.7,6.91,6.91,0,0,0,5.5,2.4,10.59,10.59,0,0,0,3.55-.6,11.89,11.89,0,0,0,3.7-2.3h.2v3.2a20.92,20.92,0,0,1-4.35,1.65A16.28,16.28,0,0,1,384.8,22.85Z"/><path class="cls-1" d="M415.6,22.45h-3.55l-7.25-8.9h-4.5v8.9h-2.7V.35h6.25q4.43,0,6.3,1.65A5.53,5.53,0,0,1,412,6.35a6.47,6.47,0,0,1-4.45,6.4ZM400.3,2.7v8.65h3.2c2,0,3.45-.4,4.35-1.25a4.62,4.62,0,0,0,1.3-3.6c0-2.55-1.7-3.8-5.15-3.8Z"/><path class="cls-1" d="M434.2,22.45H419.85V.35H434.2V2.7H422.55V9.15H433.9V11.5H422.55v8.55H434.2Z"/><path class="cls-1" d="M454.55,22.45H440.2V.35h14.35V2.7H442.9V9.15h11.35V11.5H442.9v8.55h11.65Z"/><path class="cls-1" d="M477.3,22.45h-3.15L463.05,3.3V22.45H460.5V.35h3.8l10.5,18.1V.35h2.55v22.1Z"/><path class="cls-1" d="M415,205.87A2766.36,2766.36,0,0,0,0,237.17v5.06a2761.38,2761.38,0,0,1,830,0v-5.06A2766.34,2766.34,0,0,0,415,205.87Z"/><path class="cls-1" d="M487.07,136.9l-.26.08-35.72,11.49V176.8l36,11.43,14.72-9.38v-32Zm-.64,12.2L462.8,153l-9.59-4.1,33.23-10.69Zm1.1-10.56,12.26,8.34-12.26,2Zm-24.22,15.53,23.13-3.85v25.16l-23.13-4.26Zm-1.07-.07v17.18l-10.05,4.29V149.7Zm.56,18.14,23.64,4.36v10.4l-33.36-10.6Zm24.73,4.56,12.11,2.23-12.11,7.71Zm0-1.12V150l13.15-2.19V178Z"/><path class="cls-1" d="M349.39,156.39V153H334.33a3,3,0,0,0-3,3v5.61a3,3,0,0,0,3,3h9.84v4.89H331.32v3.37h15.25a2.87,2.87,0,0,0,2.82-3V164.3a3.12,3.12,0,0,0-3-3h-9.84v-4.89Z"/><path class="cls-1" d="M368.2,156.39V153H354.43a3.06,3.06,0,0,0-3.06,3V169.9a3.12,3.12,0,0,0,3.06,3H368.2v-3.37H356.6V156.39Z"/><path class="cls-1" d="M383.62,166.14h1.17A3.51,3.51,0,0,0,388,163v-6.72a3.47,3.47,0,0,0-3.24-3.23H370.15v19.9h5.22V156.39h7.44v6.41h-6.16v.69l6.37,9.42h5.22Z"/><path class="cls-1" d="M406.95,156.39V153H393.06a3,3,0,0,0-3,3V169.9a3,3,0,0,0,3,3h13.89v-3.37H395.27v-4.89h8.78v-3.38h-8.78v-4.89Z"/><path class="cls-1" d="M425.69,156.39V153H411.8a3,3,0,0,0-3,3V169.9a3,3,0,0,0,3,3h13.89v-3.37H414v-4.89h8.78v-3.38H414v-4.89Z"/><path class="cls-1" d="M446.92,153H441.7v15.13l-7.11-13.48A3.09,3.09,0,0,0,432,153h-4.33v19.9h5.22V157.79L440,171.15a3.26,3.26,0,0,0,2.79,1.76h4.15Z"/><polygon class="cls-1" points="485.12 141.24 473.56 144.65 465.82 157.08 459.83 148.7 454.46 150.28 462.28 162.77 454.49 175.27 459.87 176.84 465.83 168.44 473.61 180.85 485.17 184.23 469.87 162.76 485.12 141.24"/><path class="cls-1" d="M366.51,82V55.36H351.13L328.22,82h5.87l-2.76,3.17v9.6h29.27v8.51h11V82Zm-5.92,3.21H343.25L346.07,82H341l14.5-16.65V82h5.13Z"/><path class="cls-1" d="M422.34,74.75h-6C416.16,64,407.12,55.36,396,55.36H377.52V74.75h6v20H402c11.25,0,20.36-8.79,20.36-19.69,0-.11,0-.22,0-.33M402.87,85.25H395V74.75h-6V64.81h7.85c4.36,0,7.91,4.42,8,9.93h6c0,.09,0,.19,0,.27,0,5.64-3.6,10.24-8,10.24"/><polygon class="cls-1" points="429.85 83.55 427.29 86.19 472.9 86.19 470.33 83.55 429.85 83.55"/><polygon class="cls-1" points="442.21 74.75 435.26 81.98 474.23 81.98 467.29 74.75 442.21 74.75"/><polygon class="cls-1" points="441.04 68.45 445.54 73.13 473.98 73.13 478.47 68.45 441.04 68.45"/><polygon class="cls-1" points="428.96 66.87 449.06 66.87 438.05 55.39 417.93 55.39 428.96 66.87"/><polygon class="cls-1" points="449.6 66.87 467.98 66.87 479 55.39 460.62 55.39 449.6 66.87"/><polygon class="cls-1" points="425.5 53.81 445.62 53.81 438.12 46.05 417.99 46.05 425.5 53.81"/><polygon class="cls-1" points="481.69 38.21 466.79 53.81 486.89 53.81 501.78 38.21 481.69 38.21"/><polygon class="cls-1" points="480.61 87.79 460.5 87.79 467.19 94.77 487.3 94.77 480.61 87.79"/><polygon class="cls-1" points="409.2 112.24 430.21 112.24 445.74 96.05 424.66 96.05 409.2 112.24"/><polygon class="cls-1" points="458.73 87.79 437.51 87.79 430.77 94.77 451.99 94.77 458.73 87.79"/><polygon class="cls-1" points="469.85 103.28 489.94 103.28 483.04 96.05 462.93 96.05 469.85 103.28"/><polygon class="cls-1" points="410.57 130.73 409.23 130.73 408.19 126.54 408.17 126.54 407.15 130.73 405.78 130.73 404.15 124.58 405.5 124.58 406.48 128.77 406.49 128.77 407.56 124.58 408.83 124.58 409.88 128.82 409.89 128.82 410.9 124.58 412.23 124.58 410.57 130.73"/><rect class="cls-1" x="412.85" y="124.58" width="1.35" height="6.15"/><polygon class="cls-1" points="416.75 125.72 414.91 125.72 414.91 124.58 419.95 124.58 419.95 125.72 418.11 125.72 418.11 130.73 416.75 130.73 416.75 125.72"/><polygon class="cls-1" points="420.66 124.58 422.01 124.58 422.01 126.94 424.5 126.94 424.5 124.58 425.85 124.58 425.85 130.73 424.5 130.73 424.5 128.08 422.01 128.08 422.01 130.73 420.66 130.73 420.66 124.58"/><rect class="cls-1" x="328.22" y="127.2" width="67.8" height="0.91"/><rect class="cls-1" x="433.98" y="127.2" width="67.8" height="0.91"/></g></g></svg>