<svg xmlns="http://www.w3.org/2000/svg" viewBox="0 0 830 242.25"><defs><style>.cls-1{fill:#9c9c9c;}</style></defs><title>アセット 1</title><g id="レイヤー_2" data-name="レイヤー 2"><g id="レイヤー_1-2" data-name="レイヤー 1"><g id="レイヤー_2-2" data-name="レイヤー 2"><g id="レイヤー_1-2-2" data-name="レイヤー 1-2"><g id="レイヤー_2-2-2" data-name="レイヤー 2-2"><g id="_4DX" data-name=" 4DX"><path class="cls-1" d="M361.5,22.87A18.49,18.49,0,0,1,353.7,21V17.67h.2a11.54,11.54,0,0,0,7.65,2.85,6.82,6.82,0,0,0,4.15-1.1,3.36,3.36,0,0,0,1.5-2.85,3.16,3.16,0,0,0-.65-2.15,4,4,0,0,0-2.2-1.2l-4.9-1a7.75,7.75,0,0,1-4.15-2.05,5.41,5.41,0,0,1-1.4-3.9,5.63,5.63,0,0,1,2.2-4.5A8.68,8.68,0,0,1,361.85,0a18.21,18.21,0,0,1,7.4,1.65v3.2H369a10.84,10.84,0,0,0-7.2-2.55,6.47,6.47,0,0,0-3.7,1A3,3,0,0,0,356.7,6c0,1.85,1,3,3.2,3.55,1.25.2,2.6.5,4.1.85a14.46,14.46,0,0,1,3.25,1.05,5.93,5.93,0,0,1,1.6,1.25,4.58,4.58,0,0,1,.9,1.6,6.22,6.22,0,0,1,.3,2A5.89,5.89,0,0,1,367.7,21,9.79,9.79,0,0,1,361.5,22.87Z"/><path class="cls-1" d="M384.8,22.87a10.06,10.06,0,0,1-7.75-3c-1.85-2-2.8-4.8-2.8-8.4a12,12,0,0,1,2.85-8.4,10.06,10.06,0,0,1,7.75-3,15.48,15.48,0,0,1,7.3,2V5.22H392a11.27,11.27,0,0,0-7.25-2.9,6.84,6.84,0,0,0-5.5,2.4,10.17,10.17,0,0,0-2,6.75,10.12,10.12,0,0,0,2,6.7,6.91,6.91,0,0,0,5.5,2.4,10.59,10.59,0,0,0,3.55-.6,11.89,11.89,0,0,0,3.7-2.3h.2v3.2a20.92,20.92,0,0,1-4.35,1.65A16.28,16.28,0,0,1,384.8,22.87Z"/><path class="cls-1" d="M415.6,22.47h-3.55l-7.25-8.9h-4.5v8.9h-2.7V.37h6.25q4.43,0,6.3,1.65A5.53,5.53,0,0,1,412,6.37a6.47,6.47,0,0,1-4.45,6.4ZM400.3,2.72v8.65h3.2c2,0,3.45-.4,4.35-1.25a4.62,4.62,0,0,0,1.3-3.6c0-2.55-1.7-3.8-5.15-3.8Z"/><path class="cls-1" d="M434.2,22.47H419.85V.37H434.2V2.72H422.55V9.17H433.9v2.35H422.55v8.55H434.2Z"/><path class="cls-1" d="M454.55,22.47H440.2V.37h14.35V2.72H442.9V9.17h11.35v2.35H442.9v8.55h11.65Z"/><path class="cls-1" d="M477.3,22.47h-3.15L463,3.32V22.47h-2.5V.37h3.8l10.5,18.1V.37h2.55v22.1Z"/><path class="cls-1" d="M415,205.89A2766.35,2766.35,0,0,0,0,237.19v5.06a2761.38,2761.38,0,0,1,830,0v-5.06A2766.34,2766.34,0,0,0,415,205.89Z"/></g></g><path class="cls-1" d="M276.79,101.23c-4.79-5.65-11.15-8.38-19.45-8.38H235.16a3.6,3.6,0,0,0-3.6,3.6h0v39a3.6,3.6,0,0,0,3.6,3.6h22.18c7.73,0,13.58-2.3,18.42-7.23a23.12,23.12,0,0,0,1-30.53M267.87,124a12.63,12.63,0,0,1-9.94,4.39H244.28a.82.82,0,0,1-.82-.82h0v-23a.82.82,0,0,1,.82-.82H258a12.5,12.5,0,0,1,9.93,4.24,12.23,12.23,0,0,1,3,8,12.62,12.62,0,0,1-3,8"/><path class="cls-1" d="M219.27,91.41a3.55,3.55,0,0,0-2.11.7l-43,31.43a3.25,3.25,0,0,0-1.36,2.65v10.56a.93.93,0,0,0,.92.92h37.21v10.64h11.9V95a3.61,3.61,0,0,0-3.61-3.6M211.1,127H188.9a.62.62,0,0,1-.35-1.13l21.62-15.6a.61.61,0,0,1,.35-.11.62.62,0,0,1,.62.62Z"/><path class="cls-1" d="M354.7,124.85a1.81,1.81,0,0,0-1.17-.43H337.2l47.4-48.77a.68.68,0,0,0-.49-1.15H358.9a1.8,1.8,0,0,0-1.24.49L329,102,311.48,86.38a1.82,1.82,0,0,0-1.21-.46H285.46a.69.69,0,0,0-.48,1.19L305.57,107a1.8,1.8,0,0,0,1.26.51h15.29l-43,40.42a.68.68,0,0,0,.47,1.18h33.13a1.81,1.81,0,0,0,1.3-.55l15.58-16.1,29.4,29.8a1.82,1.82,0,0,0,1.29.54h37.1a.68.68,0,0,0,.44-1.2Z"/><path class="cls-1" d="M647.87,96.1v29.08a.91.91,0,0,1-.81,1h-.19c-.54,0-.88-.34-1.37-1.05L628.7,100c-1-1.56-3.23-4.8-9.59-4.8-5.55,0-8.61,3-8.61,8.44v31.63H620V106.16a.9.9,0,0,1,.79-1H621c.56,0,.89.32,1.39,1l16.93,25.58c2,3,5.11,4.4,9.47,4.4,3.93,0,8.61-1.46,8.61-8.44V96.1Z"/><path class="cls-1" d="M436.45,103.27a19.6,19.6,0,0,0,.87,25.89c4.12,4.19,9.07,6.13,15.61,6.13h18.54v-8.76H453.14a10.91,10.91,0,0,1-8.67-3.84,10.62,10.62,0,0,1,8.17-17.57h18.82v-9H452.92c-9.27,0-13.84,4.06-16.47,7.12"/><path class="cls-1" d="M416.25,111.66H400.11a3.7,3.7,0,0,1-3-1,3.11,3.11,0,0,1-.84-2.2,3.39,3.39,0,0,1,1-2.36,3.66,3.66,0,0,1,2.91-1h27.22v-9H399.9c-4.84,0-7.91,1.16-10.26,3.87a12.32,12.32,0,0,0-2.75,8,12.57,12.57,0,0,0,2.91,8.32c1.53,1.63,4,3.5,10.11,3.5h15.63c1.92,0,2.67.38,3.26,1a3.22,3.22,0,0,1,1,2.35,3.32,3.32,0,0,1-.88,2.3c-.61.63-1.41,1-3.37,1H387.91v8.76H416.1c6.18,0,8.94-2.54,10.48-4.45a11.69,11.69,0,0,0-.12-14.92c-2.38-2.83-5.82-4.27-10.21-4.27"/><path class="cls-1" d="M522.68,101.65v28c0,3.76,1.92,5.66,5.72,5.66H562v-8.76H532.9c-.59,0-.84-.26-.84-.89v-5.91h29.77v-8H532.11V106c0-.59.24-.84.84-.84h29v-9H528.46c-3.83,0-5.78,1.85-5.78,5.49"/><path class="cls-1" d="M566.56,101.65v28c0,3.76,1.93,5.66,5.72,5.66h33.65v-8.76h-29.1c-.59,0-.84-.26-.84-.89v-5.91h29.77v-8H576V106c0-.59.24-.84.84-.84h29.1v-9h-33.6c-3.83,0-5.78,1.85-5.78,5.49"/><path class="cls-1" d="M518.06,123.85a10.9,10.9,0,0,0-1.12-5.43,6.54,6.54,0,0,0-2.57-2.71,8.42,8.42,0,0,0,2.9-3.52,12.29,12.29,0,0,0,1-4.88,11.42,11.42,0,0,0-2.62-7.17c-2.19-2.59-5.55-4-9.71-4H482.08c-3.83,0-5.78,1.85-5.78,5.49v33.65h9.1V120.85h18.9c1.73,0,2.93.34,3.57,1a4.33,4.33,0,0,1,1,3.07v7.29a29.16,29.16,0,0,0,.2,3.1h9.23a19.15,19.15,0,0,1-.22-4Zm-11.54-11.68a7.09,7.09,0,0,1-2.73.43H485.73v-7a.67.67,0,0,1,.67-.67h17.4a7.59,7.59,0,0,1,2.43.3,3.77,3.77,0,0,1,.3,7"/></g></g></g></g></svg>