<svg xmlns="http://www.w3.org/2000/svg" viewBox="0 0 1408 198.84"><defs><style>.cls-1{fill:#9c9c9c;}</style></defs><title>アセット 1</title><g id="レイヤー_2" data-name="レイヤー 2"><g id="_6" data-name="6"><path class="cls-1" d="M704,130.6A3943,3943,0,0,0,0,193.75v5.08a3950.12,3950.12,0,0,1,1408,0v-5.08A3942.94,3942.94,0,0,0,704,130.6Z"/><path class="cls-1" d="M650,22.87A19,19,0,0,1,642.19,21V17.7h.19A11.47,11.47,0,0,0,650,20.57a7,7,0,0,0,4.14-1.08,3.36,3.36,0,0,0,1.5-2.86,3.33,3.33,0,0,0-.64-2.16,4.26,4.26,0,0,0-2.22-1.22l-4.92-1a7.68,7.68,0,0,1-4.15-2.07,5.46,5.46,0,0,1-1.41-3.9,5.54,5.54,0,0,1,2.2-4.5A8.85,8.85,0,0,1,650.25,0a18.18,18.18,0,0,1,7.38,1.63V4.83h-.2a10.88,10.88,0,0,0-7.18-2.53,6.15,6.15,0,0,0-3.68,1A3.12,3.12,0,0,0,645.17,6q0,2.74,3.19,3.53,1.85.34,4.11.84a12.76,12.76,0,0,1,3.24,1.05,5.87,5.87,0,0,1,1.58,1.25,4.71,4.71,0,0,1,.91,1.6,6.19,6.19,0,0,1,.3,2A5.88,5.88,0,0,1,656.17,21,9.49,9.49,0,0,1,650,22.87"/><path class="cls-1" d="M673.29,22.87a10.12,10.12,0,0,1-7.76-3q-2.8-3-2.8-8.42t2.85-8.39A10,10,0,0,1,673.31,0a15.78,15.78,0,0,1,7.3,2V5.19h-.21a11.16,11.16,0,0,0-7.27-2.89,6.83,6.83,0,0,0-5.52,2.42,10.16,10.16,0,0,0-2,6.73,9.93,9.93,0,0,0,2.07,6.69,6.91,6.91,0,0,0,5.51,2.41A10.59,10.59,0,0,0,676.7,20a12,12,0,0,0,3.69-2.32h.21v3.22a22.1,22.1,0,0,1-4.37,1.67,14,14,0,0,1-2.94.34"/><path class="cls-1" d="M704.1,22.47h-3.56l-7.27-8.88h-4.5v8.88H686V.4h6.25q4.41,0,6.31,1.66a5.5,5.5,0,0,1,1.9,4.35A6.52,6.52,0,0,1,696,12.82ZM688.77,2.71v8.64H692q3,0,4.35-1.23a4.67,4.67,0,0,0,1.32-3.59q0-3.82-5.17-3.82Z"/><polygon class="cls-1" points="722.7 22.47 708.33 22.47 708.33 0.4 722.7 0.4 722.7 2.77 711.05 2.77 711.05 9.2 722.4 9.2 722.4 11.57 711.05 11.57 711.05 20.1 722.7 20.1 722.7 22.47"/><polygon class="cls-1" points="743.03 22.47 728.66 22.47 728.66 0.4 743.03 0.4 743.03 2.77 731.38 2.77 731.38 9.2 742.73 9.2 742.73 11.57 731.38 11.57 731.38 20.1 743.03 20.1 743.03 22.47"/><polygon class="cls-1" points="765.8 22.47 762.64 22.47 751.52 3.31 751.52 22.47 748.99 22.47 748.99 0.4 752.77 0.4 763.27 18.5 763.27 0.4 765.8 0.4 765.8 22.47"/><g id="レイヤー_2-2" data-name="レイヤー 2"><g id="_5" data-name=" 5"><path class="cls-1" d="M651.75,22.9A18.49,18.49,0,0,1,644,21V17.7h.2a11.54,11.54,0,0,0,7.65,2.85,6.82,6.82,0,0,0,4.15-1.1,3.3,3.3,0,0,0,1.5-2.85,3.16,3.16,0,0,0-.65-2.15,4.17,4.17,0,0,0-2.2-1.2l-4.9-1a7.75,7.75,0,0,1-4.15-2.05,5.41,5.41,0,0,1-1.4-3.9,5.63,5.63,0,0,1,2.2-4.5A8.68,8.68,0,0,1,652.1,0a18.21,18.21,0,0,1,7.4,1.65V4.85h-.2a10.84,10.84,0,0,0-7.2-2.55,6.47,6.47,0,0,0-3.7,1A3,3,0,0,0,647,5.95c0,1.85,1,3,3.2,3.55,1.25.2,2.6.5,4.1.85a14.46,14.46,0,0,1,3.25,1.05,5.93,5.93,0,0,1,1.6,1.25,4.58,4.58,0,0,1,.9,1.6,6.22,6.22,0,0,1,.3,2A5.89,5.89,0,0,1,658,21,9.8,9.8,0,0,1,651.75,22.9Z"/><path class="cls-1" d="M674.75,22.9a10.06,10.06,0,0,1-7.75-3c-1.85-2-2.8-4.8-2.8-8.4A12,12,0,0,1,667,3.1a10.06,10.06,0,0,1,7.75-3,15.48,15.48,0,0,1,7.3,2V5.25h-.2a11.27,11.27,0,0,0-7.25-2.9,6.84,6.84,0,0,0-5.5,2.4,10.17,10.17,0,0,0-2,6.75,10.12,10.12,0,0,0,2,6.7,6.91,6.91,0,0,0,5.5,2.4,10.59,10.59,0,0,0,3.55-.6,12.49,12.49,0,0,0,3.7-2.3h.2v3.2a20.92,20.92,0,0,1-4.35,1.65A16.28,16.28,0,0,1,674.75,22.9Z"/><path class="cls-1" d="M705.25,22.5H701.7l-7.25-8.9H690v8.9h-2.7V.4h6.25Q698,.4,699.85,2a5.53,5.53,0,0,1,1.9,4.35,6.47,6.47,0,0,1-4.45,6.4ZM689.9,2.75V11.4h3.2c2,0,3.45-.4,4.35-1.25a4.62,4.62,0,0,0,1.3-3.6c0-2.55-1.7-3.8-5.15-3.8Z"/><path class="cls-1" d="M723.55,22.5H709.2V.4h14.35V2.75H711.9V9.2h11.35v2.35H711.9V20.1h11.65Z"/><path class="cls-1" d="M743.55,22.5H729.2V.4h14.35V2.75H731.9V9.2h11.35v2.35H731.9V20.1h11.65Z"/><path class="cls-1" d="M766,22.5h-3.1L751.75,3.35V22.5H749.2V.4H753l10.5,18.1V.4H766Z"/><path class="cls-1" d="M589.65,39.45h20.5a16.74,16.74,0,0,1,6.45,1.1,11.07,11.07,0,0,1,4.45,3.2A11.47,11.47,0,0,1,623,47a12.8,12.8,0,0,1,.7,4.35v.15a11,11,0,0,1-6.15,10.6,13.16,13.16,0,0,1,5.8,4.1c1.45,1.8,2.15,4.3,2.15,7.5v.15c0,4.15-1.35,7.35-4,9.65S615,87,610.25,87H589.6ZM609,76.5a6.09,6.09,0,0,0,4-1.1,4,4,0,0,0,1.4-3.25V72a4.14,4.14,0,0,0-1.3-3.15,6.27,6.27,0,0,0-4.1-1.15h-8.5v8.8Zm-1.6-18a6.6,6.6,0,0,0,3.9-1,3.68,3.68,0,0,0,1.35-3.15v-.15a3.75,3.75,0,0,0-1.25-3,5.84,5.84,0,0,0-3.8-1h-7.2V58.5h7Z"/><path class="cls-1" d="M649,39.45h32.1V50.7H659.9v7.2h19.2V68.3H659.9v7.55h21.5V87.1H649Z"/><path class="cls-1" d="M721.15,87.9a26,26,0,0,1-10.2-2,24.93,24.93,0,0,1-8.55-5.95l6.2-8.8c4,3.8,8.3,5.7,13,5.7A5.88,5.88,0,0,0,725,76a2.73,2.73,0,0,0,1.2-2.4v-.2a3,3,0,0,0-.3-1.35,3.09,3.09,0,0,0-1-1.1,11,11,0,0,0-2-1.05,24.69,24.69,0,0,0-3.35-1.05c-2.15-.6-4.1-1.25-6-1.95a16.82,16.82,0,0,1-4.75-2.7,12,12,0,0,1-3.2-4.15,14.07,14.07,0,0,1-1.15-6.15v-.1a17.17,17.17,0,0,1,1-6.1,13.47,13.47,0,0,1,3.1-4.8,14.25,14.25,0,0,1,4.9-3.15,17.46,17.46,0,0,1,6.45-1.1,25.16,25.16,0,0,1,9.2,1.6A22.15,22.15,0,0,1,736.4,45l-5.55,9.35a21.44,21.44,0,0,0-5.65-3.5,14.68,14.68,0,0,0-5.6-1.2,4.3,4.3,0,0,0-3,.9,2.83,2.83,0,0,0-1,2.15v.15a3.42,3.42,0,0,0,.3,1.45,2.58,2.58,0,0,0,1.1,1.1,8.25,8.25,0,0,0,2.1,1,31.55,31.55,0,0,0,3.4,1,50.07,50.07,0,0,1,6.2,2,17.41,17.41,0,0,1,4.7,2.9,10.91,10.91,0,0,1,3,4.1,14.26,14.26,0,0,1,1,5.75v.15a16.56,16.56,0,0,1-1.2,6.5,14.39,14.39,0,0,1-3.3,4.85,13.75,13.75,0,0,1-5.1,3.05A19.15,19.15,0,0,1,721.15,87.9Z"/><path class="cls-1" d="M771,51H759V39.5h35V51H782V87H770.9Z"/><path class="cls-1" d="M817.55,39.45H828.7l-.1,47.65H817.45Z"/><polygon class="cls-1" points="878.95 39.09 868.25 39.09 851.1 87.1 887.3 62.75 878.95 39.09"/><polygon class="cls-1" points="851.1 87.1 895.9 87.1 891.05 73.39 851.1 87.1"/><rect class="cls-1" x="513.05" y="78.8" width="48.95" height="8.3"/><rect class="cls-1" x="513.05" y="59" width="48.95" height="8.3"/><rect class="cls-1" x="513.05" y="39.15" width="48.95" height="8.3"/><path class="cls-1" d="M513.15,99.95h5.5a4.22,4.22,0,0,1,3.2,1.1,2.79,2.79,0,0,1,.8,2.05v.05a3,3,0,0,1-.15,1,2.65,2.65,0,0,1-.4.75,2.87,2.87,0,0,1-.55.55,4.57,4.57,0,0,1-.65.4c.35.15.7.3,1,.45a2.21,2.21,0,0,1,.75.6,2.39,2.39,0,0,1,.5.85,3.66,3.66,0,0,1,.15,1.1v.05a3.26,3.26,0,0,1-.3,1.45,2.6,2.6,0,0,1-.9,1.05,4.28,4.28,0,0,1-1.45.65,7.24,7.24,0,0,1-1.85.2h-5.7V99.95Zm5,5.2a3.42,3.42,0,0,0,1.7-.4,1.49,1.49,0,0,0,.65-1.25v-.05a1.36,1.36,0,0,0-.55-1.15,2.79,2.79,0,0,0-1.6-.4h-3.1v3.3h2.9Zm.65,5.2a3.48,3.48,0,0,0,1.75-.4,1.49,1.49,0,0,0,.65-1.25v-.05a1.31,1.31,0,0,0-.6-1.2,3.22,3.22,0,0,0-1.9-.45h-3.4v3.4h3.5Z"/><path class="cls-1" d="M530.9,101.65h7.8v1.7h-6v2.75H538v1.7h-5.3v2.85h6v1.7h-7.9v-10.7Z"/><path class="cls-1" d="M549.3,112.4a7.48,7.48,0,0,1-2.35-.4,6,6,0,0,1-2-1.3l1.1-1.35a5.42,5.42,0,0,0,1.55,1,4,4,0,0,0,1.8.35,2.17,2.17,0,0,0,1.35-.35,1.08,1.08,0,0,0,.5-.95v-.05a1.48,1.48,0,0,0-.1-.5.89.89,0,0,0-.35-.4,2.1,2.1,0,0,0-.75-.35c-.3-.1-.7-.2-1.2-.35l-1.5-.45a3.3,3.3,0,0,1-1.1-.6,3.73,3.73,0,0,1-.7-.85,3.09,3.09,0,0,1-.25-1.25v-.05a3.48,3.48,0,0,1,.25-1.25,2.88,2.88,0,0,1,.75-.95,3.64,3.64,0,0,1,1.15-.65,4.4,4.4,0,0,1,1.45-.25,5.61,5.61,0,0,1,2.1.35,6.86,6.86,0,0,1,1.75,1l-1,1.4a7,7,0,0,0-1.45-.8,3.59,3.59,0,0,0-1.45-.3,1.86,1.86,0,0,0-1.25.35,1.14,1.14,0,0,0-.45.9v.05a1.8,1.8,0,0,0,.1.55.77.77,0,0,0,.4.4,2.61,2.61,0,0,0,.75.35c.35.1.75.25,1.25.35s1,.3,1.5.45a2.69,2.69,0,0,1,1,.65,2.58,2.58,0,0,1,.65.85,2.78,2.78,0,0,1,.2,1.15v.05a3,3,0,0,1-.3,1.35,3.09,3.09,0,0,1-.75,1,3,3,0,0,1-1.2.6A3.14,3.14,0,0,1,549.3,112.4Z"/><path class="cls-1" d="M562.45,103.4H559.1v-1.75h8.55v1.75H564.3v8.85h-1.85V103.4Z"/><path class="cls-1" d="M590.45,99.95h2.15V112.3h-2.15Z"/><path class="cls-1" d="M601,101.65h2l3.2,5,3.2-5h2v10.6h-1.85v-7.6l-3.35,5h0l-3.3-4.95v7.55H601Z"/><path class="cls-1" d="M618.65,101.65h2l3.2,5,3.2-5h2v10.6H627.2v-7.6l-3.35,5h0l-3.3-4.95v7.55H618.7v-10.6Z"/><path class="cls-1" d="M636.35,101.65h7.8v1.7h-6v2.75h5.3v1.7h-5.3v2.85h6v1.7h-7.9v-10.7Z"/><path class="cls-1" d="M651,101.65h4.7a4.75,4.75,0,0,1,1.75.3,3.8,3.8,0,0,1,1.3.8,3.13,3.13,0,0,1,.65,1,3.48,3.48,0,0,1,.25,1.25v0a2.63,2.63,0,0,1-.2,1.15,5.7,5.7,0,0,1-.5.95,3.66,3.66,0,0,1-.8.7,3.61,3.61,0,0,1-1,.45l2.85,4h-2.2l-2.6-3.7h-2.3v3.7H651V101.65Zm4.55,5.25a2.36,2.36,0,0,0,1.6-.5,1.55,1.55,0,0,0,.6-1.3v0a1.49,1.49,0,0,0-.6-1.3,2.54,2.54,0,0,0-1.6-.45h-2.7v3.55h2.7Z"/><path class="cls-1" d="M670.25,112.4a7.48,7.48,0,0,1-2.35-.4,6,6,0,0,1-2-1.3l1.1-1.35a5.42,5.42,0,0,0,1.55,1,4,4,0,0,0,1.8.35,2.17,2.17,0,0,0,1.35-.35,1.08,1.08,0,0,0,.5-.95v-.05a1.48,1.48,0,0,0-.1-.5.89.89,0,0,0-.35-.4,2.1,2.1,0,0,0-.75-.35c-.3-.1-.7-.2-1.2-.35l-1.5-.45a3.3,3.3,0,0,1-1.1-.6,3.73,3.73,0,0,1-.7-.85,3.09,3.09,0,0,1-.25-1.25v-.05a3.48,3.48,0,0,1,.25-1.25,2.88,2.88,0,0,1,.75-.95,3.64,3.64,0,0,1,1.15-.65,4.4,4.4,0,0,1,1.45-.25,5.61,5.61,0,0,1,2.1.35,6.86,6.86,0,0,1,1.75,1l-1,1.4a7,7,0,0,0-1.45-.8,3.59,3.59,0,0,0-1.45-.3,1.86,1.86,0,0,0-1.25.35,1.14,1.14,0,0,0-.45.9v.05a1.8,1.8,0,0,0,.1.55.77.77,0,0,0,.4.4,2.61,2.61,0,0,0,.75.35c.35.1.75.25,1.25.35s1,.3,1.5.45a2.69,2.69,0,0,1,1,.65,2.58,2.58,0,0,1,.65.85,2.78,2.78,0,0,1,.2,1.15v.05a3,3,0,0,1-.3,1.35,3.09,3.09,0,0,1-.75,1,3,3,0,0,1-1.2.6A3.27,3.27,0,0,1,670.25,112.4Z"/><path class="cls-1" d="M680.85,101.65h1.85v10.6h-1.85Z"/><path class="cls-1" d="M689.2,101.65h2l3.2,8.15,3.15-8.15h2l-4.4,10.65H693.5Z"/><path class="cls-1" d="M706,101.65h7.8v1.7h-6v2.75h5.3v1.7h-5.3v2.85h6v1.7H706Z"/><path class="cls-1" d="M741.2,99.85h2l5.4,12.4h-2.3l-1.25-3h-5.8l-1.25,3h-2.2Zm3.1,7.5-2.1-4.95-2.1,4.95Z"/><path class="cls-1" d="M760.15,112.45a5.32,5.32,0,0,1-1.85-.3,3.39,3.39,0,0,1-1.4-.9,3.94,3.94,0,0,1-.9-1.45,6.22,6.22,0,0,1-.3-2v-6.1h1.85v6.05a3.27,3.27,0,0,0,.7,2.25,2.64,2.64,0,0,0,2,.75,2.49,2.49,0,0,0,2-.75,3,3,0,0,0,.7-2.2v-6.1h1.85v6a5,5,0,0,1-.35,2.05,3.77,3.77,0,0,1-.9,1.5,3.57,3.57,0,0,1-1.45.9A5.32,5.32,0,0,1,760.15,112.45Z"/><path class="cls-1" d="M771.8,101.65h4a6.23,6.23,0,0,1,2.25.4,5.44,5.44,0,0,1,1.8,1.1A5.19,5.19,0,0,1,781,104.8a5.81,5.81,0,0,1,.4,2.1v.05a5.81,5.81,0,0,1-.4,2.1,4.88,4.88,0,0,1-1.15,1.7,4.73,4.73,0,0,1-1.8,1.1,6.65,6.65,0,0,1-2.25.4h-4Zm4,8.95a4.71,4.71,0,0,0,1.5-.25,3.33,3.33,0,0,0,1.9-1.9,4.4,4.4,0,0,0,.25-1.45v-.05a4.64,4.64,0,0,0-.25-1.45,3.06,3.06,0,0,0-.75-1.15,3.82,3.82,0,0,0-1.15-.75,3.64,3.64,0,0,0-1.5-.25h-2.1v7.25Z"/><path class="cls-1" d="M788.3,101.65h1.85v10.6H788.3Z"/><path class="cls-1" d="M802.6,112.45a5.65,5.65,0,0,1-2.25-.45,7.07,7.07,0,0,1-1.75-1.15,5.33,5.33,0,0,1-1.15-1.75,5.81,5.81,0,0,1-.4-2.1v-.05a5.81,5.81,0,0,1,.4-2.1,5.07,5.07,0,0,1,1.15-1.75,6.06,6.06,0,0,1,1.75-1.2,5.32,5.32,0,0,1,2.25-.45,5.65,5.65,0,0,1,2.25.45A7.07,7.07,0,0,1,806.6,103a5.33,5.33,0,0,1,1.15,1.75,5.81,5.81,0,0,1,.4,2.1v.05a5.81,5.81,0,0,1-.4,2.1,5.07,5.07,0,0,1-1.15,1.75,6.06,6.06,0,0,1-1.75,1.2A5.65,5.65,0,0,1,802.6,112.45Zm0-1.7a3.59,3.59,0,0,0,1.45-.3,3,3,0,0,0,1.1-.8,4.87,4.87,0,0,0,.75-1.2,4.64,4.64,0,0,0,.25-1.45v-.05a4.64,4.64,0,0,0-.25-1.45,3,3,0,0,0-.75-1.2,3.17,3.17,0,0,0-1.15-.8,3.42,3.42,0,0,0-1.45-.3,3.59,3.59,0,0,0-1.45.3,3,3,0,0,0-1.1.8,4.87,4.87,0,0,0-.75,1.2,4.64,4.64,0,0,0-.25,1.45v.1a4.64,4.64,0,0,0,.25,1.45,3.74,3.74,0,0,0,.75,1.2,3.17,3.17,0,0,0,1.15.8A3.59,3.59,0,0,0,802.6,110.75Z"/><path class="cls-1" d="M814.1,99.95h2.4l3.7,9.5,3.7-9.5h2.35l-5.1,12.4h-1.9Z"/><path class="cls-1" d="M833.55,101.65h1.85v10.6h-1.85Z"/><path class="cls-1" d="M846.5,112.4a7.48,7.48,0,0,1-2.35-.4,6,6,0,0,1-2-1.3l1.1-1.35a5.42,5.42,0,0,0,1.55,1,4,4,0,0,0,1.8.35,2.17,2.17,0,0,0,1.35-.35,1.08,1.08,0,0,0,.5-.95v-.05a1.48,1.48,0,0,0-.1-.5.89.89,0,0,0-.35-.4,2.1,2.1,0,0,0-.75-.35c-.3-.1-.7-.2-1.2-.35l-1.5-.45a3.3,3.3,0,0,1-1.1-.6,3.73,3.73,0,0,1-.7-.85,3.09,3.09,0,0,1-.25-1.25v-.05a3.48,3.48,0,0,1,.25-1.25,2.88,2.88,0,0,1,.75-.95,3.64,3.64,0,0,1,1.15-.65,4.4,4.4,0,0,1,1.45-.25,5.61,5.61,0,0,1,2.1.35,6.86,6.86,0,0,1,1.75,1l-1,1.4a7,7,0,0,0-1.45-.8,3.59,3.59,0,0,0-1.45-.3,1.86,1.86,0,0,0-1.25.35,1.14,1.14,0,0,0-.45.9v.05a1.8,1.8,0,0,0,.1.55.77.77,0,0,0,.4.4,2.61,2.61,0,0,0,.75.35c.35.1.75.25,1.25.35s1,.3,1.5.45a2.69,2.69,0,0,1,1,.65,2.58,2.58,0,0,1,.65.85,2.78,2.78,0,0,1,.2,1.15v.05a3,3,0,0,1-.3,1.35,3.09,3.09,0,0,1-.75,1,3.39,3.39,0,0,1-1.2.6A3.15,3.15,0,0,1,846.5,112.4Z"/><path class="cls-1" d="M861.4,112.45a5.32,5.32,0,0,1-1.85-.3,3.39,3.39,0,0,1-1.4-.9,3.94,3.94,0,0,1-.9-1.45,6.22,6.22,0,0,1-.3-2v-6.1h1.85v6.05a3.27,3.27,0,0,0,.7,2.25,2.64,2.64,0,0,0,2,.75,2.49,2.49,0,0,0,2-.75,3,3,0,0,0,.7-2.2v-6.1H866v6a5,5,0,0,1-.35,2.05,3.77,3.77,0,0,1-.9,1.5,3.57,3.57,0,0,1-1.45.9A5.52,5.52,0,0,1,861.4,112.45Z"/><path class="cls-1" d="M876.8,101.6h1.7l4.65,10.65h-2l-1-2.55h-5l-1.1,2.55h-1.9Zm2.65,6.45-1.85-4.25L875.8,108Z"/><path class="cls-1" d="M889.55,101.65h1.85v8.9h5.55v1.7h-7.4v-10.6Z"/></g></g></g></g></svg>