<svg xmlns="http://www.w3.org/2000/svg" viewBox="0 0 1364.01 152.9"><defs><style>.cls-1{fill:#9c9c9c;}</style></defs><title>アセット 1</title><g id="レイヤー_2" data-name="レイヤー 2"><g id="IMAX"><path class="cls-1" d="M628,22.87A19,19,0,0,1,620.2,21V17.7h.19A11.47,11.47,0,0,0,628,20.57a7,7,0,0,0,4.14-1.08,3.36,3.36,0,0,0,1.5-2.86,3.33,3.33,0,0,0-.64-2.16,4.26,4.26,0,0,0-2.22-1.22l-4.92-1a7.68,7.68,0,0,1-4.15-2.07,5.46,5.46,0,0,1-1.41-3.9,5.54,5.54,0,0,1,2.2-4.5A8.85,8.85,0,0,1,628.26,0a18.19,18.19,0,0,1,7.38,1.63V4.83h-.21a10.88,10.88,0,0,0-7.18-2.53,6.15,6.15,0,0,0-3.68,1A3.12,3.12,0,0,0,623.18,6q0,2.74,3.19,3.53,1.85.34,4.11.84a12.75,12.75,0,0,1,3.24,1.05,5.86,5.86,0,0,1,1.58,1.25,4.71,4.71,0,0,1,.91,1.6,6.18,6.18,0,0,1,.3,2A5.88,5.88,0,0,1,634.18,21,9.49,9.49,0,0,1,628,22.87"/><path class="cls-1" d="M651.3,22.87a10.12,10.12,0,0,1-7.76-3q-2.8-3-2.8-8.42t2.85-8.39A10,10,0,0,1,651.31,0a15.78,15.78,0,0,1,7.3,2V5.19h-.21a11.16,11.16,0,0,0-7.27-2.89,6.83,6.83,0,0,0-5.52,2.42,10.16,10.16,0,0,0-2,6.73,9.93,9.93,0,0,0,2.07,6.69,6.91,6.91,0,0,0,5.51,2.41,10.6,10.6,0,0,0,3.55-.59,12,12,0,0,0,3.69-2.32h.21v3.22a22.09,22.09,0,0,1-4.37,1.67,14,14,0,0,1-2.94.34"/><path class="cls-1" d="M682.1,22.47h-3.56l-7.27-8.88h-4.5v8.88h-2.72V.4h6.25q4.41,0,6.31,1.66a5.49,5.49,0,0,1,1.9,4.35A6.52,6.52,0,0,1,674,12.82ZM666.78,2.71v8.64H670q3,0,4.35-1.23a4.67,4.67,0,0,0,1.32-3.59q0-3.82-5.17-3.82Z"/><polygon class="cls-1" points="700.71 22.47 686.34 22.47 686.34 0.4 700.71 0.4 700.71 2.77 689.06 2.77 689.06 9.2 700.41 9.2 700.41 11.57 689.06 11.57 689.06 20.1 700.71 20.1 700.71 22.47"/><polygon class="cls-1" points="721.03 22.47 706.66 22.47 706.66 0.4 721.03 0.4 721.03 2.77 709.39 2.77 709.39 9.2 720.74 9.2 720.74 11.57 709.39 11.57 709.39 20.1 721.03 20.1 721.03 22.47"/><polygon class="cls-1" points="743.81 22.47 740.65 22.47 729.53 3.31 729.53 22.47 727 22.47 727 0.4 730.77 0.4 741.28 18.5 741.28 0.4 743.81 0.4 743.81 22.47"/><path class="cls-1" d="M646,39.65s-9.24,18.26-10.77,21.27c-1.51-3-10.8-21.27-10.8-21.27h-18V75.17h10.06V49.44h2.05l12.55,25.72h8.32s12-24.64,12.56-25.72H654V75.17H664.1V39.65Z"/><rect class="cls-1" x="587.26" y="39.65" width="11.31" height="35.51"/><path class="cls-1" d="M666.1,75.17H678s2.62-5.12,3.1-6h22.55c.47.91,3.07,6,3.07,6h11.93l-18-35.51H684.13ZM693,47.69c.46.92,5.67,11.18,6.83,13.48H685l6.83-13.48Z"/><path class="cls-1" d="M766.48,39.61H755l-9.7,11.57-9.52-11.57H721.93l14,16.67L719.25,75.17H734l11.36-13c1.32,1.54,11.19,13,11.19,13h14.76L754.61,56.28l14-16.67Z"/><path class="cls-1" d="M770,43.34a4,4,0,1,1,4,4v-.65a3.37,3.37,0,1,0-3.37-3.38A3.38,3.38,0,0,0,774,46.71v.65a4,4,0,0,1-4-4"/><path class="cls-1" d="M773.14,44v1.44h-.85V41.11h2.23c1,0,1.33.32,1.33,1.31,0,.65,0,1.12-.78,1.23v0c.61,0,.75.38.75,1v.82H775v-.82c0-.37-.15-.62-.55-.62Zm1.1-.73c.61,0,.77-.11.77-.75s-.11-.73-.71-.73h-1.16v1.48Z"/><path class="cls-1" d="M682,88.59A3944,3944,0,0,0,0,147.83v5.08a3950.8,3950.8,0,0,1,1364,0v-5.08A3944,3944,0,0,0,682,88.59Z"/></g></g></svg>