<?xml version="1.0" encoding="utf-8"?>
<!-- Generator: Adobe Illustrator 24.2.1, SVG Export Plug-In . SVG Version: 6.00 Build 0)  -->
<svg version="1.1" id="レイヤー_1" xmlns="http://www.w3.org/2000/svg" xmlns:xlink="http://www.w3.org/1999/xlink" x="0px"
	 y="0px" width="1364px" height="152.9px" viewBox="0 0 1364 152.9" style="enable-background:new 0 0 1364 152.9;"
	 xml:space="preserve">
<style type="text/css">
	.st0{fill:#9C9C9C;}
</style>
<g id="レイヤー_2_1_">
	<g id="IMAX">
		<path class="st0" d="M628,62.9c-2.7-0.1-5.4-0.7-7.8-1.9v-3.3h0.2c2.1,1.9,4.8,2.9,7.6,2.9c1.5,0.1,2.9-0.3,4.1-1.1
			c1-0.6,1.5-1.7,1.5-2.9c0-0.8-0.2-1.5-0.6-2.2c-0.6-0.6-1.4-1-2.2-1.2l-4.9-1c-1.6-0.2-3-1-4.2-2.1c-1-1.1-1.5-2.5-1.4-3.9
			c0-1.8,0.8-3.4,2.2-4.5c1.7-1.2,3.7-1.9,5.8-1.8c2.5,0,5.1,0.6,7.4,1.6v3.2h-0.2c-2-1.7-4.6-2.6-7.2-2.5c-1.3-0.1-2.6,0.3-3.7,1
			c-0.9,0.6-1.4,1.6-1.4,2.7c0,1.8,1.1,3,3.2,3.5c1.2,0.2,2.6,0.5,4.1,0.8c1.1,0.2,2.2,0.6,3.2,1c0.6,0.3,1.1,0.7,1.6,1.2
			c0.4,0.5,0.7,1,0.9,1.6c0.2,0.6,0.3,1.3,0.3,2c0,1.9-0.9,3.6-2.3,4.7C632.4,62.3,630.2,63,628,62.9"/>
		<path class="st0" d="M651.3,62.9c-2.9,0.2-5.7-0.9-7.8-3c-1.9-2-2.8-4.8-2.8-8.4s1-6.4,2.8-8.4c2-2.1,4.8-3.2,7.7-3.1
			c2.6,0.1,5.1,0.8,7.3,2v3.2h-0.2c-2-1.8-4.6-2.8-7.3-2.9c-2.1-0.1-4.2,0.8-5.5,2.4c-1.4,1.9-2.2,4.3-2,6.7
			c-0.1,2.4,0.6,4.8,2.1,6.7c1.4,1.6,3.4,2.5,5.5,2.4c1.2,0,2.4-0.2,3.5-0.6c1.4-0.5,2.6-1.3,3.7-2.3h0.2v3.2
			c-1.4,0.7-2.9,1.3-4.4,1.7C653.3,62.8,652.3,62.9,651.3,62.9"/>
		<path class="st0" d="M682.1,62.5h-3.6l-7.3-8.9h-4.5v8.9H664V40.4h6.2c2.9,0,5,0.6,6.3,1.7c1.3,1.1,2,2.7,1.9,4.3
			c0.1,2.9-1.7,5.5-4.5,6.4L682.1,62.5z M666.8,42.7v8.6h3.2c2,0,3.5-0.4,4.3-1.2c0.9-1,1.4-2.3,1.3-3.6c0-2.5-1.7-3.8-5.2-3.8
			H666.8z"/>
		<polygon class="st0" points="700.7,62.5 686.3,62.5 686.3,40.4 700.7,40.4 700.7,42.8 689.1,42.8 689.1,49.2 700.4,49.2 
			700.4,51.6 689.1,51.6 689.1,60.1 700.7,60.1 		"/>
		<polygon class="st0" points="721,62.5 706.7,62.5 706.7,40.4 721,40.4 721,42.8 709.4,42.8 709.4,49.2 720.7,49.2 720.7,51.6 
			709.4,51.6 709.4,60.1 721,60.1 		"/>
		<polygon class="st0" points="743.8,62.5 740.7,62.5 729.5,43.3 729.5,62.5 727,62.5 727,40.4 730.8,40.4 741.3,58.5 741.3,40.4 
			743.8,40.4 		"/>
		<path class="st0" d="M682,88.6c-228.6-0.1-456.8,19.8-682,59.2v5.1c451.2-79.1,912.8-79.1,1364,0v-5.1
			C1138.8,108.4,910.6,88.5,682,88.6z"/>
	</g>
</g>
</svg>
