<svg xmlns="http://www.w3.org/2000/svg" viewBox="0 0 616 180.69"><defs><style>.cls-1{fill:#9a9a9b;}</style></defs><title>アセット 39</title><g id="レイヤー_2" data-name="レイヤー 2"><g id="_7" data-name="7"><path class="cls-1" d="M308,163.66c-102.73,0-205.6,4-308,12v5c102.4-8,205.27-12,308-12s205.6,4,308,12v-5C513.6,167.7,410.73,163.66,308,163.66Z"/><g id="レイヤー_2-2" data-name="レイヤー 2"><g id="レイヤー_1-2" data-name="レイヤー 1-2"><g id="レイヤー_2-2-2" data-name="レイヤー 2-2"><g id="レイヤー_1-2-2" data-name="レイヤー 1-2-2"><path class="cls-1" d="M500.54,134l-37.3-31.86a1.3,1.3,0,0,0-.84-.31H447.65l41.44-42.6a.33.33,0,0,0-.23-.55H467.05a1.3,1.3,0,0,0-.89.35l-25,23.56-15.3-13.68a1.3,1.3,0,0,0-.87-.33H403.53a.33.33,0,0,0-.23.57l17.81,17.25a1.3,1.3,0,0,0,.91.37h13.89l-37.7,35.42a.32.32,0,0,0,.22.56h28.66a1.3,1.3,0,0,0,.93-.4l13.67-14.12,25.63,26a1.3,1.3,0,0,0,.93.39h32.09a.33.33,0,0,0,.21-.57"/><path class="cls-1" d="M381.72,73.77h0V103.2a1.23,1.23,0,0,1-1.1,1.35h-.15c-.74,0-1.18-.5-1.68-1.21L361.57,77.59c-1.11-1.66-3.24-4.77-9.55-4.77-5,0-8.49,2.46-8.49,8.32h0v32h9V83.74a1.23,1.23,0,0,1,1.1-1.35h.18c.76,0,1.18.49,1.68,1.21l17.31,26.16c1.16,1.71,3.6,4.36,9.42,4.36a10.78,10.78,0,0,0,4.25-.77c2.26-.87,4.25-2.88,4.25-7.35V73.77Z"/><path class="cls-1" d="M161,93.53A19.43,19.43,0,0,1,165.47,81c2.42-2.8,7-7.17,16.61-7.17h18.65v8.57H182.28a11.38,11.38,0,0,0-9.21,4,11.52,11.52,0,0,0-2.6,7.17,11.22,11.22,0,0,0,2.74,7.28,11.51,11.51,0,0,0,9.09,4h18.42v8.33H182.05c-6.49,0-11.55-1.92-15.74-6.18A19.43,19.43,0,0,1,161,93.49"/><path class="cls-1" d="M155.63,82.39H128.11a4,4,0,0,0-3.21,1.11,3.77,3.77,0,0,0-1,2.62,3.47,3.47,0,0,0,.93,2.45,4.12,4.12,0,0,0,3.26,1.11h16.5c5.12,0,8.22,1.9,10.2,4.26a11.64,11.64,0,0,1,.12,14.86c-1.67,2.08-4.51,4.43-10.47,4.43H115.88v-8.34h27.93c2,0,3-.42,3.67-1.17a3.72,3.72,0,0,0,1-2.56,3.61,3.61,0,0,0-1.11-2.62c-.68-.71-1.53-1.11-3.56-1.11h-16c-6,0-8.52-1.78-10.11-3.48a12.48,12.48,0,0,1-2.89-8.3,12.3,12.3,0,0,1,2.74-8c2.62-3,6-3.85,10.26-3.85h27.8Z"/><path class="cls-1" d="M293.33,73.83V82.4H263.88a1,1,0,0,0-1.17,1.17v6.18h30.44v7.57H262.72v6.35c0,.82.39,1.22,1.17,1.22h29.45v8.33h-34.1q-5.54,0-5.54-5.48V79.13q0-5.3,5.6-5.3Z"/><path class="cls-1" d="M338.21,73.83V82.4H308.76a1,1,0,0,0-1.17,1.17v6.18H338v7.57H307.59v6.35q0,1.22,1.17,1.22h29.45v8.33h-34.1q-5.54,0-5.54-5.48V79.13q0-5.3,5.6-5.3Z"/><path class="cls-1" d="M248.36,109.5v-7.69a10.79,10.79,0,0,0-1.11-5.39,6.24,6.24,0,0,0-3-2.88,8.45,8.45,0,0,0,3.29-3.76,12.23,12.23,0,0,0,1-4.87c0-4.25-2.84-11.07-12.3-11.07H211.87q-5.6,0-5.6,5.3v34.1H215V98.42h19.64q2.8,0,3.88,1.14a4.7,4.7,0,0,1,1.08,3.35v7.46a25.88,25.88,0,0,0,.17,2.86h8.75a15.33,15.33,0,0,1-.15-1.63v-2.1M237,90.15a7.5,7.5,0,0,1-2.91.47H215.3V83.09a1,1,0,0,1,1-1h17.79a8,8,0,0,1,2.59.32,4.17,4.17,0,0,1,.32,7.72"/><path class="cls-1" d="M254,22.89a18.49,18.49,0,0,1-7.8-1.88V17.69h.2A11.54,11.54,0,0,0,254,20.54a6.82,6.82,0,0,0,4.15-1.1,3.36,3.36,0,0,0,1.5-2.85,3.16,3.16,0,0,0-.65-2.15,4,4,0,0,0-2.2-1.2l-4.9-1a7.75,7.75,0,0,1-4.15-2.05,5.41,5.41,0,0,1-1.4-3.9,5.63,5.63,0,0,1,2.2-4.5A8.68,8.68,0,0,1,254.32,0a18.21,18.21,0,0,1,7.4,1.65v3.2h-.25a10.84,10.84,0,0,0-7.2-2.55,6.47,6.47,0,0,0-3.7,1,3,3,0,0,0-1.4,2.7c0,1.85,1,3,3.2,3.55,1.25.2,2.6.5,4.1.85a14.46,14.46,0,0,1,3.25,1.05,5.93,5.93,0,0,1,1.6,1.25,4.58,4.58,0,0,1,.9,1.6,6.22,6.22,0,0,1,.3,2,5.89,5.89,0,0,1-2.35,4.7A9.79,9.79,0,0,1,254,22.89Z"/><path class="cls-1" d="M277.27,22.89a10.06,10.06,0,0,1-7.75-3c-1.85-2-2.8-4.8-2.8-8.4a12,12,0,0,1,2.85-8.4,10.06,10.06,0,0,1,7.75-3,15.48,15.48,0,0,1,7.3,2V5.24h-.15a11.27,11.27,0,0,0-7.25-2.9,6.84,6.84,0,0,0-5.5,2.4,10.17,10.17,0,0,0-2,6.75,10.12,10.12,0,0,0,2,6.7,6.91,6.91,0,0,0,5.5,2.4,10.59,10.59,0,0,0,3.55-.6,11.89,11.89,0,0,0,3.7-2.3h.2v3.2a20.92,20.92,0,0,1-4.35,1.65A16.28,16.28,0,0,1,277.27,22.89Z"/><path class="cls-1" d="M308.07,22.49h-3.55l-7.25-8.9h-4.5v8.9h-2.7V.39h6.25q4.43,0,6.3,1.65a5.53,5.53,0,0,1,1.85,4.35,6.47,6.47,0,0,1-4.45,6.4ZM292.77,2.74v8.65H296c2,0,3.45-.4,4.35-1.25a4.62,4.62,0,0,0,1.3-3.6c0-2.55-1.7-3.8-5.15-3.8Z"/><path class="cls-1" d="M326.67,22.49H312.32V.39h14.35V2.74H315V9.19h11.35v2.35H315v8.55h11.65Z"/><path class="cls-1" d="M347,22.49H332.67V.39H347V2.74H335.37V9.19h11.35v2.35H335.37v8.55H347Z"/><path class="cls-1" d="M369.77,22.49h-3.15L355.47,3.34V22.49H353V.39h3.8l10.5,18.1V.39h2.55v22.1Z"/></g></g></g></g></g></g></svg>