<svg xmlns="http://www.w3.org/2000/svg" viewBox="0 0 1376 150.81"><defs><style>.cls-1{fill:#9c9c9c;}</style></defs><title>アセット 1</title><g id="レイヤー_2" data-name="レイヤー 2"><g id="IMAX"><path class="cls-1" d="M634,22.87A19,19,0,0,1,626.2,21V17.7h.19A11.47,11.47,0,0,0,634,20.57a7,7,0,0,0,4.14-1.08,3.36,3.36,0,0,0,1.5-2.86,3.33,3.33,0,0,0-.64-2.16,4.26,4.26,0,0,0-2.22-1.22l-4.92-1a7.68,7.68,0,0,1-4.15-2.07,5.46,5.46,0,0,1-1.41-3.9,5.54,5.54,0,0,1,2.2-4.5A8.85,8.85,0,0,1,634.25,0a18.18,18.18,0,0,1,7.38,1.63V4.83h-.2a10.88,10.88,0,0,0-7.18-2.53,6.15,6.15,0,0,0-3.68,1A3.12,3.12,0,0,0,629.17,6q0,2.74,3.19,3.53,1.85.34,4.11.84a12.76,12.76,0,0,1,3.24,1.05,5.87,5.87,0,0,1,1.58,1.25,4.71,4.71,0,0,1,.91,1.6,6.19,6.19,0,0,1,.3,2A5.88,5.88,0,0,1,640.17,21,9.49,9.49,0,0,1,634,22.87"/><path class="cls-1" d="M657.29,22.87a10.12,10.12,0,0,1-7.76-3q-2.8-3-2.8-8.42t2.85-8.39A10,10,0,0,1,657.31,0a15.78,15.78,0,0,1,7.3,2V5.19h-.21a11.16,11.16,0,0,0-7.27-2.89,6.83,6.83,0,0,0-5.52,2.42,10.16,10.16,0,0,0-2,6.73,9.93,9.93,0,0,0,2.07,6.69,6.91,6.91,0,0,0,5.51,2.41,10.59,10.59,0,0,0,3.55-.59,12,12,0,0,0,3.69-2.32h.21v3.22a22.1,22.1,0,0,1-4.37,1.67,14,14,0,0,1-2.94.34"/><path class="cls-1" d="M688.1,22.47h-3.56l-7.27-8.88h-4.5v8.88H670V.4h6.25q4.41,0,6.31,1.66a5.5,5.5,0,0,1,1.9,4.35A6.52,6.52,0,0,1,680,12.82ZM672.77,2.71v8.64H676q3,0,4.35-1.23a4.67,4.67,0,0,0,1.32-3.59q0-3.82-5.17-3.82Z"/><polygon class="cls-1" points="706.7 22.47 692.33 22.47 692.33 0.4 706.7 0.4 706.7 2.77 695.05 2.77 695.05 9.2 706.4 9.2 706.4 11.57 695.05 11.57 695.05 20.1 706.7 20.1 706.7 22.47"/><polygon class="cls-1" points="727.03 22.47 712.66 22.47 712.66 0.4 727.03 0.4 727.03 2.77 715.38 2.77 715.38 9.2 726.74 9.2 726.74 11.57 715.38 11.57 715.38 20.1 727.03 20.1 727.03 22.47"/><polygon class="cls-1" points="749.8 22.47 746.64 22.47 735.52 3.31 735.52 22.47 732.99 22.47 732.99 0.4 736.77 0.4 747.27 18.5 747.27 0.4 749.8 0.4 749.8 22.47"/><path class="cls-1" d="M652,39.65s-9.24,18.26-10.77,21.27c-1.51-3-10.8-21.27-10.8-21.27h-18V75.17h10.06V49.44h2.05l12.55,25.72h8.32s12-24.64,12.56-25.72H660V75.17h10.06V39.65Z"/><rect class="cls-1" x="593.25" y="39.65" width="11.31" height="35.51"/><path class="cls-1" d="M672.09,75.17H684s2.62-5.12,3.1-6h22.55c.47.91,3.07,6,3.07,6h11.93l-18-35.51H690.12ZM699,47.69c.46.92,5.67,11.18,6.83,13.48H691l6.83-13.48Z"/><path class="cls-1" d="M772.48,39.61H761l-9.7,11.57-9.52-11.57H727.92l14,16.67L725.25,75.17H740l11.36-13c1.32,1.54,11.19,13,11.19,13h14.76L760.61,56.28l14-16.67Z"/><path class="cls-1" d="M776,43.34a4,4,0,1,1,4,4v-.65a3.37,3.37,0,1,0-3.37-3.38A3.38,3.38,0,0,0,780,46.71v.65a4,4,0,0,1-4-4"/><path class="cls-1" d="M779.14,44v1.44h-.85V41.11h2.23c1,0,1.33.32,1.33,1.31,0,.65,0,1.12-.78,1.23v0c.61,0,.75.38.75,1v.82H781v-.82c0-.37-.15-.62-.55-.62Zm1.1-.73c.61,0,.77-.11.77-.75s-.11-.73-.71-.73h-1.16v1.48Z"/><path class="cls-1" d="M688,88.59A4167.28,4167.28,0,0,0,0,145.74v5.07a4164.83,4164.83,0,0,1,1376,0v-5.07A4167.29,4167.29,0,0,0,688,88.59Z"/></g></g></svg>