<svg xmlns="http://www.w3.org/2000/svg" viewBox="0 0 606.16 151.51"><defs><style>.cls-1{fill:#9c9c9c;}</style></defs><title>アセット 37</title><g id="レイヤー_2" data-name="レイヤー 2"><g id="_4DX" data-name="4DX"><path class="cls-1" d="M249.5,22.85A18.49,18.49,0,0,1,241.7,21V17.65h.2a11.54,11.54,0,0,0,7.65,2.85,6.82,6.82,0,0,0,4.15-1.1,3.36,3.36,0,0,0,1.5-2.85,3.16,3.16,0,0,0-.65-2.15,4,4,0,0,0-2.2-1.2l-4.9-1a7.75,7.75,0,0,1-4.15-2.05,5.41,5.41,0,0,1-1.4-3.9,5.63,5.63,0,0,1,2.2-4.5A8.68,8.68,0,0,1,249.85,0a18.21,18.21,0,0,1,7.4,1.65v3.2h-.2a10.84,10.84,0,0,0-7.2-2.55,6.47,6.47,0,0,0-3.7,1A3,3,0,0,0,244.75,6c0,1.85,1,3,3.2,3.55,1.25.2,2.6.5,4.1.85a14.46,14.46,0,0,1,3.25,1.05,5.93,5.93,0,0,1,1.6,1.25,4.58,4.58,0,0,1,.9,1.6,6.22,6.22,0,0,1,.3,2A5.89,5.89,0,0,1,255.75,21,9.79,9.79,0,0,1,249.5,22.85Z"/><path class="cls-1" d="M272.8,22.85a10.06,10.06,0,0,1-7.75-3c-1.85-2-2.8-4.8-2.8-8.4s1-6.35,2.85-8.4a10.06,10.06,0,0,1,7.75-3,15.48,15.48,0,0,1,7.3,2V5.2H280a11.27,11.27,0,0,0-7.25-2.9,6.84,6.84,0,0,0-5.5,2.4,10.17,10.17,0,0,0-2,6.75,10.12,10.12,0,0,0,2,6.7,6.91,6.91,0,0,0,5.5,2.4,10.59,10.59,0,0,0,3.55-.6,11.89,11.89,0,0,0,3.7-2.3h.2v3.2a20.92,20.92,0,0,1-4.35,1.65A16.28,16.28,0,0,1,272.8,22.85Z"/><path class="cls-1" d="M303.6,22.45h-3.55l-7.25-8.9h-4.5v8.9h-2.7V.35h6.25q4.43,0,6.3,1.65A5.53,5.53,0,0,1,300,6.35a6.47,6.47,0,0,1-4.45,6.4ZM288.3,2.7v8.65h3.2c2,0,3.45-.4,4.35-1.25a4.62,4.62,0,0,0,1.3-3.6c0-2.55-1.7-3.8-5.15-3.8Z"/><path class="cls-1" d="M322.2,22.45H307.85V.35H322.2V2.7H310.55V9.15H321.9V11.5H310.55v8.55H322.2Z"/><path class="cls-1" d="M342.55,22.45H328.2V.35h14.35V2.7H330.9V9.15h11.35V11.5H330.9v8.55h11.65Z"/><path class="cls-1" d="M365.3,22.45h-3.15L351.05,3.3V22.45H348.5V.35h3.8l10.5,18.1V.35h2.55v22.1Z"/><path class="cls-1" d="M246.5,82.15V55.5H231.1L208.2,82.15h5.85l-2.75,3.2v9.6h29.3v8.5h11V82.15Zm-5.9,3.2H223.25l2.8-3.2h-5.1l14.5-16.65V82.15h5.15v3.2Z"/><path class="cls-1" d="M302.35,74.9h-6c-.2-10.75-9.2-19.4-20.35-19.4H257.5V74.9h6V95H282c11.25,0,20.35-8.8,20.35-19.7A1,1,0,0,0,302.35,74.9ZM282.9,85.4h-7.85V74.9h-6V65h7.85c4.35,0,7.9,4.4,8,9.95h6v.25C290.9,80.8,287.3,85.4,282.9,85.4Z"/><polygon class="cls-1" points="309.85 83.7 307.3 86.35 352.95 86.35 350.35 83.7 309.85 83.7"/><polygon class="cls-1" points="322.25 74.9 315.3 82.15 354.25 82.15 347.3 74.9 322.25 74.9"/><polygon class="cls-1" points="321.05 68.6 325.55 73.3 354 73.3 358.5 68.6 321.05 68.6"/><polygon class="cls-1" points="309 67 329.1 67 318.05 55.55 297.95 55.55 309 67"/><polygon class="cls-1" points="329.65 67 348 67 359.05 55.55 340.65 55.55 329.65 67"/><polygon class="cls-1" points="305.5 53.95 325.65 53.95 318.15 46.2 298 46.2 305.5 53.95"/><polygon class="cls-1" points="361.7 38.35 346.8 53.95 366.95 53.95 381.85 38.35 361.7 38.35"/><polygon class="cls-1" points="360.65 87.95 340.55 87.95 347.2 94.95 367.35 94.95 360.65 87.95"/><polygon class="cls-1" points="289.2 112.4 310.25 112.4 325.75 96.2 304.7 96.2 289.2 112.4"/><polygon class="cls-1" points="338.75 87.95 317.55 87.95 310.8 94.95 332 94.95 338.75 87.95"/><polygon class="cls-1" points="349.9 103.45 370 103.45 363.1 96.2 342.95 96.2 349.9 103.45"/><path class="cls-1" d="M385,42.65a7.85,7.85,0,0,1,1.55-2.25,6.55,6.55,0,0,1,2.3-1.5,7.29,7.29,0,0,1,2.75-.55,7.55,7.55,0,0,1,2.8.55,6.83,6.83,0,0,1,2.25,1.5,7.85,7.85,0,0,1,1.55,2.25,6.52,6.52,0,0,1,.55,2.8,7.42,7.42,0,0,1-.55,2.85,7.22,7.22,0,0,1-1.55,2.25,6.83,6.83,0,0,1-2.25,1.5,7.36,7.36,0,0,1-2.8.55,7.34,7.34,0,0,1-5-2A7,7,0,0,1,385,48.3a7.61,7.61,0,0,1-.55-2.85A7.36,7.36,0,0,1,385,42.65Zm1.2,5.25a5.68,5.68,0,0,0,1.25,2,6.87,6.87,0,0,0,1.85,1.3,5.9,5.9,0,0,0,2.3.45,5.72,5.72,0,0,0,2.3-.45,5.39,5.39,0,0,0,1.85-1.3,5.68,5.68,0,0,0,1.25-2,6.48,6.48,0,0,0,.45-2.45A6.4,6.4,0,0,0,397,43a5,5,0,0,0-1.25-1.9,6.17,6.17,0,0,0-1.85-1.3,5.9,5.9,0,0,0-2.3-.45,5.72,5.72,0,0,0-2.3.45,5.39,5.39,0,0,0-1.85,1.3,6,6,0,0,0-1.25,1.9,6.4,6.4,0,0,0-.45,2.4A6.66,6.66,0,0,0,386.25,47.9Zm5.85-6.6a3.4,3.4,0,0,1,2.2.6,2.14,2.14,0,0,1,.7,1.8,2,2,0,0,1-.65,1.65,2.68,2.68,0,0,1-1.55.6l2.4,3.7h-1.4l-2.25-3.6h-1.4v3.6h-1.3V41.3Zm-.55,3.7a4.85,4.85,0,0,0,.85,0,1.6,1.6,0,0,0,.7-.15,2,2,0,0,0,.5-.4,1.75,1.75,0,0,0,.15-.8,1.13,1.13,0,0,0-.15-.65,1.18,1.18,0,0,0-.45-.4,1.69,1.69,0,0,0-.6-.2,2.85,2.85,0,0,0-.65,0h-1.7v2.65h1.35Z"/><path class="cls-1" d="M303,129.8A2773.44,2773.44,0,0,0,0,146.45v5a2760,2760,0,0,1,606.16,0v-5A2773.45,2773.45,0,0,0,303,129.8Z"/></g></g></svg>