<?xml version="1.0" encoding="utf-8"?>
<!-- Generator: Adobe Illustrator 24.2.1, SVG Export Plug-In . SVG Version: 6.00 Build 0)  -->
<svg version="1.1" id="レイヤー_1" xmlns="http://www.w3.org/2000/svg" xmlns:xlink="http://www.w3.org/1999/xlink" x="0px"
	 y="0px" width="1376px" height="150.8px" viewBox="0 0 1376 150.8" style="enable-background:new 0 0 1376 150.8;"
	 xml:space="preserve">
<style type="text/css">
	.st0{fill:#9C9C9C;}
</style>
<g id="レイヤー_2_1_">
	<g id="IMAX">
		<path class="st0" d="M634,62.9c-2.7-0.1-5.4-0.7-7.8-1.9v-3.3h0.2c2.1,1.9,4.8,2.9,7.6,2.9c1.5,0.1,2.9-0.3,4.1-1.1
			c1-0.6,1.5-1.7,1.5-2.9c0-0.8-0.2-1.5-0.6-2.2c-0.6-0.6-1.4-1-2.2-1.2l-4.9-1c-1.6-0.2-3-1-4.2-2.1c-1-1.1-1.5-2.5-1.4-3.9
			c0-1.8,0.8-3.4,2.2-4.5c1.6-1.2,3.7-1.9,5.7-1.8c2.5,0,5.1,0.6,7.4,1.6v3.2h-0.2c-2-1.7-4.6-2.6-7.2-2.5c-1.3-0.1-2.6,0.3-3.7,1
			c-0.9,0.6-1.4,1.6-1.4,2.7c0,1.8,1.1,3,3.2,3.5c1.2,0.2,2.6,0.5,4.1,0.8c1.1,0.2,2.2,0.6,3.2,1c0.6,0.3,1.1,0.7,1.6,1.2
			c0.4,0.5,0.7,1,0.9,1.6c0.2,0.6,0.3,1.3,0.3,2c0,1.9-0.9,3.6-2.3,4.7C638.4,62.3,636.2,63,634,62.9"/>
		<path class="st0" d="M657.3,62.9c-2.9,0.2-5.7-0.9-7.8-3c-1.9-2-2.8-4.8-2.8-8.4s1-6.4,2.8-8.4c2-2.1,4.8-3.2,7.7-3.1
			c2.6,0.1,5.1,0.8,7.3,2v3.2h-0.2c-2-1.8-4.6-2.8-7.3-2.9c-2.1-0.1-4.2,0.8-5.5,2.4c-1.4,1.9-2.2,4.3-2,6.7
			c-0.1,2.4,0.6,4.8,2.1,6.7c1.4,1.6,3.4,2.5,5.5,2.4c1.2,0,2.4-0.2,3.5-0.6c1.4-0.5,2.6-1.3,3.7-2.3h0.2v3.2
			c-1.4,0.7-2.9,1.3-4.4,1.7C659.3,62.8,658.3,62.9,657.3,62.9"/>
		<path class="st0" d="M688.1,62.5h-3.6l-7.3-8.9h-4.5v8.9H670V40.4h6.2c2.9,0,5,0.6,6.3,1.7c1.3,1.1,2,2.7,1.9,4.3
			c0.1,2.9-1.7,5.5-4.5,6.4L688.1,62.5z M672.8,42.7v8.6h3.2c2,0,3.5-0.4,4.3-1.2c0.9-1,1.4-2.3,1.3-3.6c0-2.5-1.7-3.8-5.2-3.8
			H672.8z"/>
		<polygon class="st0" points="706.7,62.5 692.3,62.5 692.3,40.4 706.7,40.4 706.7,42.8 695,42.8 695,49.2 706.4,49.2 706.4,51.6 
			695,51.6 695,60.1 706.7,60.1 		"/>
		<polygon class="st0" points="727,62.5 712.7,62.5 712.7,40.4 727,40.4 727,42.8 715.4,42.8 715.4,49.2 726.7,49.2 726.7,51.6 
			715.4,51.6 715.4,60.1 727,60.1 		"/>
		<polygon class="st0" points="749.8,62.5 746.6,62.5 735.5,43.3 735.5,62.5 733,62.5 733,40.4 736.8,40.4 747.3,58.5 747.3,40.4 
			749.8,40.4 		"/>
		<path class="st0" d="M688,88.6c-230.5,0-460.6,19.1-688,57.2v5.1c455.5-76.3,920.5-76.3,1376,0v-5.1
			C1148.6,107.7,918.5,88.6,688,88.6z"/>
	</g>
</g>
</svg>
